<?xml version="1.0" encoding="UTF-8" standalone="no"?>
<svg enable-background="new -0.258 -0.548 123.547 123.539" viewBox="-0.258 -0.548 123.547 123.539" xml:space="preserve" xmlns="http://www.w3.org/2000/svg"><defs></defs>
<path d="m14.57081,1.51265c-6.79968,0-12.31971,5.53258-12.31971,12.31971v94.36746c0,6.76204 5.52003,12.26953 12.31971,12.26953h94.35492c6.78713,0 12.30717-5.50749 12.30717-12.26953v-94.36746c0-6.78713-5.52004-12.31971-12.30717-12.31971h-94.35492z" fill="#fff"></path><path d="m108.92573,122.991c8.19223,0 14.81627-6.61149 14.81627-14.79118v-94.36746c0-8.17968-6.62404-14.82882-14.81627-14.82882h-94.35492c-8.17968,0-14.82881,6.64913-14.82881,14.82882v94.36746c0,8.17969 6.64913,14.79118 14.82881,14.79118h94.35492z" fill="#231f20"></path><path d="m18.9743,86.03187h-9.08296v17.91502c0,5.48239 4.91785,9.96115 10.98988,9.96115h79.61393c6.07203,0 11.00243-4.47876 11.00243-9.96115v-17.91502h-9.09551v16.0081c0,2.00728-1.80656,3.6382-4.01457,3.6382h-75.38608c-2.2331,0-4.02711-1.63092-4.02711-3.6382v-16.0081z" fill="#fff"></path><path d="m91.29926,98.00031v-14.11372l-61.29745-20.46176v14.11372l61.29745,20.46176z" fill="#fff"></path><path d="m44.14063,63.42483c-2.10765-2.37111-16.121-18.56738-1.98219-32.59328 11.7928-11.67989 13.49899-21.47794 9.5346-26.25779 0,0 29.98381,12.31971 12.3448,40.91097-3.01092,4.85512-10.56333,10.58843-6.61149,22.40631l-13.28571-4.46621z" fill="#fff"></path><path d="m62.55746,67.32649c-.63982-2.40874-3.51275-7.62768 5.25658-18.01538 4.69203-5.53258 6.46095-13.7499 6.87495-16.8361 0,0 15.53136,8.89478.08782,30.68636l-12.21935,4.16512z" fill="#fff"></path><path d="m65.86948,70.65106 25.42978-8.48078v14.11372l-4.31566,1.41765-21.11412-7.05059z" fill="#fff"></path><path d="m55.45669,90.77408-25.45488,8.48078v-14.11372l4.32821-1.41764 21.12667,7.05059z" fill="#fff"></path></svg>
