<?xml version="1.0" encoding="UTF-8" standalone="no"?>
<!-- Created with Inkscape (http://www.inkscape.org/) -->

<svg
   xmlns:dc="http://purl.org/dc/elements/1.1/"
   xmlns:cc="http://creativecommons.org/ns#"
   xmlns:rdf="http://www.w3.org/1999/02/22-rdf-syntax-ns#"
   xmlns:svg="http://www.w3.org/2000/svg"
   xmlns="http://www.w3.org/2000/svg"
   xmlns:sodipodi="http://sodipodi.sourceforge.net/DTD/sodipodi-0.dtd"
   xmlns:inkscape="http://www.inkscape.org/namespaces/inkscape"
   width="15.732283"
   height="15.732283"
   id="svg2"
   version="1.1"
   inkscape:version="0.48.4 r9939"
   sodipodi:docname="Phko.svg">
  <defs
     id="defs4" />
  <sodipodi:namedview
     id="base"
     pagecolor="#ffffff"
     bordercolor="#666666"
     borderopacity="1.0"
     inkscape:pageopacity="0.0"
     inkscape:pageshadow="2"
     inkscape:zoom="36.810962"
     inkscape:cx="1.3005246"
     inkscape:cy="7.53279"
     inkscape:document-units="px"
     inkscape:current-layer="layer1"
     showgrid="true"
     units="mm"
     inkscape:window-width="1856"
     inkscape:window-height="1058"
     inkscape:window-x="-8"
     inkscape:window-y="-8"
     inkscape:window-maximized="1"
     inkscape:snap-global="false">
    <inkscape:grid
       type="xygrid"
       id="grid3761"
       empspacing="5"
       visible="true"
       enabled="true"
       snapvisiblegridlinesonly="true"
       units="mm"
       spacingx="0.1mm"
       spacingy="0.1mm" />
  </sodipodi:namedview>
  <metadata
     id="metadata7">
    <rdf:RDF>
      <cc:Work
         rdf:about="">
        <dc:format>image/svg+xml</dc:format>
        <dc:type
           rdf:resource="http://purl.org/dc/dcmitype/StillImage" />
        <dc:title></dc:title>
      </cc:Work>
    </rdf:RDF>
  </metadata>
  <g
     inkscape:label="Layer 1"
     inkscape:groupmode="layer"
     id="layer1"
     transform="translate(0,-1036.6299)">
    <path
       transform="matrix(0.53393398,0,0,0.53393398,4.0123762,1049.0035)"
       d="m 3.2079259,1.824868 c 0,0.4137476 -0.3354087,0.7491563 -0.7491563,0.7491563 -0.4137476,0 -0.7491563,-0.3354087 -0.7491563,-0.7491563 0,-0.4137476 0.3354087,-0.7491563 0.7491563,-0.7491563 0.4137476,0 0.7491563,0.3354087 0.7491563,0.7491563 z"
       sodipodi:ry="0.7491563"
       sodipodi:rx="0.7491563"
       sodipodi:cy="1.824868"
       sodipodi:cx="2.4587696"
       id="path2987"
       style="fill:#000000;fill-opacity:1;stroke:#000000;stroke-width:0.03543307000000000;stroke-linecap:round;stroke-linejoin:miter;stroke-miterlimit:4;stroke-opacity:1;stroke-dasharray:none;stroke-dashoffset:0"
       sodipodi:type="arc" />
    <path
       sodipodi:type="arc"
       style="fill:#000000;fill-opacity:1;stroke:#000000;stroke-width:0.03543307000000000;stroke-linecap:round;stroke-linejoin:miter;stroke-miterlimit:4;stroke-opacity:1;stroke-dasharray:none;stroke-dashoffset:0"
       id="path3763"
       sodipodi:cx="2.4587696"
       sodipodi:cy="1.824868"
       sodipodi:rx="0.7491563"
       sodipodi:ry="0.7491563"
       d="m 3.2079259,1.824868 c 0,0.4137476 -0.3354087,0.7491563 -0.7491563,0.7491563 -0.4137476,0 -0.7491563,-0.3354087 -0.7491563,-0.7491563 0,-0.4137476 0.3354087,-0.7491563 0.7491563,-0.7491563 0.4137476,0 0.7491563,0.3354087 0.7491563,0.7491563 z"
       transform="matrix(0.53393398,0,0,0.53393398,2.0281243,1044.1138)" />
    <path
       transform="matrix(0.53393398,0,0,0.53393398,5.9611951,1046.0626)"
       d="m 3.2079259,1.824868 c 0,0.4137476 -0.3354087,0.7491563 -0.7491563,0.7491563 -0.4137476,0 -0.7491563,-0.3354087 -0.7491563,-0.7491563 0,-0.4137476 0.3354087,-0.7491563 0.7491563,-0.7491563 0.4137476,0 0.7491563,0.3354087 0.7491563,0.7491563 z"
       sodipodi:ry="0.7491563"
       sodipodi:rx="0.7491563"
       sodipodi:cy="1.824868"
       sodipodi:cx="2.4587696"
       id="path3765"
       style="fill:#000000;fill-opacity:1;stroke:#000000;stroke-width:0.03543307000000000;stroke-linecap:round;stroke-linejoin:miter;stroke-miterlimit:4;stroke-opacity:1;stroke-dasharray:none;stroke-dashoffset:0"
       sodipodi:type="arc" />
    <path
       sodipodi:type="arc"
       style="fill:#000000;fill-opacity:1;stroke:#000000;stroke-width:0.03543307000000000;stroke-linecap:round;stroke-linejoin:miter;stroke-miterlimit:4;stroke-opacity:1;stroke-dasharray:none;stroke-dashoffset:0"
       id="path3767"
       sodipodi:cx="2.4587696"
       sodipodi:cy="1.824868"
       sodipodi:rx="0.7491563"
       sodipodi:ry="0.7491563"
       d="m 3.2079259,1.824868 c 0,0.4137476 -0.3354087,0.7491563 -0.7491563,0.7491563 -0.4137476,0 -0.7491563,-0.3354087 -0.7491563,-0.7491563 0,-0.4137476 0.3354087,-0.7491563 0.7491563,-0.7491563 0.4137476,0 0.7491563,0.3354087 0.7491563,0.7491563 z"
       transform="matrix(0.53393398,0,0,0.53393398,8.9375731,1045.0705)" />
    <path
       transform="matrix(0.53393398,0,0,0.53393398,5.0045022,1041.1374)"
       d="m 3.2079259,1.824868 c 0,0.4137476 -0.3354087,0.7491563 -0.7491563,0.7491563 -0.4137476,0 -0.7491563,-0.3354087 -0.7491563,-0.7491563 0,-0.4137476 0.3354087,-0.7491563 0.7491563,-0.7491563 0.4137476,0 0.7491563,0.3354087 0.7491563,0.7491563 z"
       sodipodi:ry="0.7491563"
       sodipodi:rx="0.7491563"
       sodipodi:cy="1.824868"
       sodipodi:cx="2.4587696"
       id="path3773"
       style="fill:#000000;fill-opacity:1;stroke:#000000;stroke-width:0.03543307000000000;stroke-linecap:round;stroke-linejoin:miter;stroke-miterlimit:4;stroke-opacity:1;stroke-dasharray:none;stroke-dashoffset:0"
       sodipodi:type="arc" />
    <path
       sodipodi:type="arc"
       style="fill:#000000;fill-opacity:1;stroke:#000000;stroke-width:0.03543307000000000;stroke-linecap:round;stroke-linejoin:miter;stroke-miterlimit:4;stroke-opacity:1;stroke-dasharray:none;stroke-dashoffset:0"
       id="path3775"
       sodipodi:cx="2.4587696"
       sodipodi:cy="1.824868"
       sodipodi:rx="0.7491563"
       sodipodi:ry="0.7491563"
       d="m 3.2079259,1.824868 c 0,0.4137476 -0.3354087,0.7491563 -0.7491563,0.7491563 -0.4137476,0 -0.7491563,-0.3354087 -0.7491563,-0.7491563 0,-0.4137476 0.3354087,-0.7491563 0.7491563,-0.7491563 0.4137476,0 0.7491563,0.3354087 0.7491563,0.7491563 z"
       transform="matrix(0.53393398,0,0,0.53393398,7.9454471,1040.1453)" />
    <path
       transform="matrix(0.53393398,0,0,0.53393398,11.878518,1042.1295)"
       d="m 3.2079259,1.824868 c 0,0.4137476 -0.3354087,0.7491563 -0.7491563,0.7491563 -0.4137476,0 -0.7491563,-0.3354087 -0.7491563,-0.7491563 0,-0.4137476 0.3354087,-0.7491563 0.7491563,-0.7491563 0.4137476,0 0.7491563,0.3354087 0.7491563,0.7491563 z"
       sodipodi:ry="0.7491563"
       sodipodi:rx="0.7491563"
       sodipodi:cy="1.824868"
       sodipodi:cx="2.4587696"
       id="path3777"
       style="fill:#000000;fill-opacity:1;stroke:#000000;stroke-width:0.03543307000000000;stroke-linecap:round;stroke-linejoin:miter;stroke-miterlimit:4;stroke-opacity:1;stroke-dasharray:none;stroke-dashoffset:0"
       sodipodi:type="arc" />
    <path
       transform="matrix(0.9070159,0,0,0.9070159,0.69622421,1037.7042)"
       d="m 3.2079259,1.824868 a 0.7491563,0.7491563 0 1 1 -1.4983126,0 0.7491563,0.7491563 0 1 1 1.4983126,0 z"
       sodipodi:ry="0.7491563"
       sodipodi:rx="0.7491563"
       sodipodi:cy="1.824868"
       sodipodi:cx="2.4587696"
       id="path3787"
       style="fill:#000000;fill-opacity:1;stroke:#000000;stroke-width:0.03543307;stroke-linecap:round;stroke-linejoin:miter;stroke-miterlimit:4;stroke-opacity:1;stroke-dasharray:none;stroke-dashoffset:0"
       sodipodi:type="arc" />
    <path
       sodipodi:type="arc"
       style="fill:#000000;fill-opacity:1;stroke:#000000;stroke-width:0.03543307;stroke-linecap:round;stroke-linejoin:miter;stroke-miterlimit:4;stroke-opacity:1;stroke-dasharray:none;stroke-dashoffset:0"
       id="path3789"
       sodipodi:cx="2.4587696"
       sodipodi:cy="1.824868"
       sodipodi:rx="0.7491563"
       sodipodi:ry="0.7491563"
       d="m 3.2079259,1.824868 a 0.7491563,0.7491563 0 1 1 -1.4983126,0 0.7491563,0.7491563 0 1 1 1.4983126,0 z"
       transform="matrix(0.9070159,0,0,0.9070159,5.1072656,1037.246)" />
    <path
       transform="matrix(0.9070159,0,0,0.9070159,9.6570038,1038.0341)"
       d="m 3.2079259,1.824868 a 0.7491563,0.7491563 0 1 1 -1.4983126,0 0.7491563,0.7491563 0 1 1 1.4983126,0 z"
       sodipodi:ry="0.7491563"
       sodipodi:rx="0.7491563"
       sodipodi:cy="1.824868"
       sodipodi:cx="2.4587696"
       id="path3791"
       style="fill:#000000;fill-opacity:1;stroke:#000000;stroke-width:0.03543307;stroke-linecap:round;stroke-linejoin:miter;stroke-miterlimit:4;stroke-opacity:1;stroke-dasharray:none;stroke-dashoffset:0"
       sodipodi:type="arc" />
    <path
       sodipodi:type="arc"
       style="fill:#000000;fill-opacity:1;stroke:#000000;stroke-width:0.03543307000000000;stroke-linecap:round;stroke-linejoin:miter;stroke-miterlimit:4;stroke-opacity:1;stroke-dasharray:none;stroke-dashoffset:0"
       id="path3793"
       sodipodi:cx="2.4587696"
       sodipodi:cy="1.824868"
       sodipodi:rx="0.7491563"
       sodipodi:ry="0.7491563"
       d="m 3.2079259,1.824868 c 0,0.4137476 -0.3354087,0.7491563 -0.7491563,0.7491563 -0.4137476,0 -0.7491563,-0.3354087 -0.7491563,-0.7491563 0,-0.4137476 0.3354087,-0.7491563 0.7491563,-0.7491563 0.4137476,0 0.7491563,0.3354087 0.7491563,0.7491563 z"
       transform="matrix(0.9070159,0,0,0.9070159,7.1286921,1039.4515)" />
    <path
       transform="matrix(0.9070159,0,0,0.9070159,4.016812,1040.412)"
       d="m 3.2079259,1.824868 c 0,0.4137476 -0.3354087,0.7491563 -0.7491563,0.7491563 -0.4137476,0 -0.7491563,-0.3354087 -0.7491563,-0.7491563 0,-0.4137476 0.3354087,-0.7491563 0.7491563,-0.7491563 0.4137476,0 0.7491563,0.3354087 0.7491563,0.7491563 z"
       sodipodi:ry="0.7491563"
       sodipodi:rx="0.7491563"
       sodipodi:cy="1.824868"
       sodipodi:cx="2.4587696"
       id="path3795"
       style="fill:#000000;fill-opacity:1;stroke:#000000;stroke-width:0.03543307000000000;stroke-linecap:round;stroke-linejoin:miter;stroke-miterlimit:4;stroke-opacity:1;stroke-dasharray:none;stroke-dashoffset:0"
       sodipodi:type="arc" />
    <path
       transform="matrix(0.9070159,0,0,0.9070159,1.1738598,1043.6007)"
       d="m 3.2079259,1.824868 c 0,0.4137476 -0.3354087,0.7491563 -0.7491563,0.7491563 -0.4137476,0 -0.7491563,-0.3354087 -0.7491563,-0.7491563 0,-0.4137476 0.3354087,-0.7491563 0.7491563,-0.7491563 0.4137476,0 0.7491563,0.3354087 0.7491563,0.7491563 z"
       sodipodi:ry="0.7491563"
       sodipodi:rx="0.7491563"
       sodipodi:cy="1.824868"
       sodipodi:cx="2.4587696"
       id="path3799"
       style="fill:#000000;fill-opacity:1;stroke:#000000;stroke-width:0.03543307000000000;stroke-linecap:round;stroke-linejoin:miter;stroke-miterlimit:4;stroke-opacity:1;stroke-dasharray:none;stroke-dashoffset:0"
       sodipodi:type="arc" />
    <path
       sodipodi:type="arc"
       style="fill:#000000;fill-opacity:1;stroke:#000000;stroke-width:0.03543307000000000;stroke-linecap:round;stroke-linejoin:miter;stroke-miterlimit:4;stroke-opacity:1;stroke-dasharray:none;stroke-dashoffset:0"
       id="path3801"
       sodipodi:cx="2.4587696"
       sodipodi:cy="1.824868"
       sodipodi:rx="0.7491563"
       sodipodi:ry="0.7491563"
       d="m 3.2079259,1.824868 c 0,0.4137476 -0.3354087,0.7491563 -0.7491563,0.7491563 -0.4137476,0 -0.7491563,-0.3354087 -0.7491563,-0.7491563 0,-0.4137476 0.3354087,-0.7491563 0.7491563,-0.7491563 0.4137476,0 0.7491563,0.3354087 0.7491563,0.7491563 z"
       transform="matrix(0.9070159,0,0,0.9070159,5.150151,1045.4064)" />
    <path
       transform="matrix(0.9070159,0,0,0.9070159,8.108358,1044.3691)"
       d="m 3.2079259,1.824868 c 0,0.4137476 -0.3354087,0.7491563 -0.7491563,0.7491563 -0.4137476,0 -0.7491563,-0.3354087 -0.7491563,-0.7491563 0,-0.4137476 0.3354087,-0.7491563 0.7491563,-0.7491563 0.4137476,0 0.7491563,0.3354087 0.7491563,0.7491563 z"
       sodipodi:ry="0.7491563"
       sodipodi:rx="0.7491563"
       sodipodi:cy="1.824868"
       sodipodi:cx="2.4587696"
       id="path3803"
       style="fill:#000000;fill-opacity:1;stroke:#000000;stroke-width:0.03543307000000000;stroke-linecap:round;stroke-linejoin:miter;stroke-miterlimit:4;stroke-opacity:1;stroke-dasharray:none;stroke-dashoffset:0"
       sodipodi:type="arc" />
    <path
       sodipodi:type="arc"
       style="fill:#000000;fill-opacity:1;stroke:#000000;stroke-width:0.03543307000000000;stroke-linecap:round;stroke-linejoin:miter;stroke-miterlimit:4;stroke-opacity:1;stroke-dasharray:none;stroke-dashoffset:0"
       id="path3805"
       sodipodi:cx="2.4587696"
       sodipodi:cy="1.824868"
       sodipodi:rx="0.7491563"
       sodipodi:ry="0.7491563"
       d="m 3.2079259,1.824868 c 0,0.4137476 -0.3354087,0.7491563 -0.7491563,0.7491563 -0.4137476,0 -0.7491563,-0.3354087 -0.7491563,-0.7491563 0,-0.4137476 0.3354087,-0.7491563 0.7491563,-0.7491563 0.4137476,0 0.7491563,0.3354087 0.7491563,0.7491563 z"
       transform="matrix(0.9070159,0,0,0.9070159,10.932101,1041.4877)" />
    <path
       transform="matrix(0.9070159,0,0,0.9070159,10.223665,1046.415)"
       d="m 3.2079259,1.824868 a 0.7491563,0.7491563 0 1 1 -1.4983126,0 0.7491563,0.7491563 0 1 1 1.4983126,0 z"
       sodipodi:ry="0.7491563"
       sodipodi:rx="0.7491563"
       sodipodi:cy="1.824868"
       sodipodi:cx="2.4587696"
       id="path3811"
       style="fill:#000000;fill-opacity:1;stroke:#000000;stroke-width:0.03543307;stroke-linecap:round;stroke-linejoin:miter;stroke-miterlimit:4;stroke-opacity:1;stroke-dasharray:none;stroke-dashoffset:0"
       sodipodi:type="arc" />
    <path
       sodipodi:type="arc"
       style="fill:#000000;fill-opacity:1;stroke:#000000;stroke-width:0.03543307000000000;stroke-linecap:round;stroke-linejoin:miter;stroke-miterlimit:4;stroke-opacity:1;stroke-dasharray:none;stroke-dashoffset:0"
       id="path3813"
       sodipodi:cx="2.4587696"
       sodipodi:cy="1.824868"
       sodipodi:rx="0.7491563"
       sodipodi:ry="0.7491563"
       d="m 3.2079259,1.824868 c 0,0.4137476 -0.3354087,0.7491563 -0.7491563,0.7491563 -0.4137476,0 -0.7491563,-0.3354087 -0.7491563,-0.7491563 0,-0.4137476 0.3354087,-0.7491563 0.7491563,-0.7491563 0.4137476,0 0.7491563,0.3354087 0.7491563,0.7491563 z"
       transform="matrix(0.9070159,0,0,0.9070159,2.9411003,1048.2877)" />
  </g>
</svg>
