<?xml version="1.0" encoding="UTF-8" standalone="no"?>
<!-- Created with Inkscape (http://www.inkscape.org/) -->

<svg
   xmlns:dc="http://purl.org/dc/elements/1.1/"
   xmlns:cc="http://creativecommons.org/ns#"
   xmlns:rdf="http://www.w3.org/1999/02/22-rdf-syntax-ns#"
   xmlns:svg="http://www.w3.org/2000/svg"
   xmlns="http://www.w3.org/2000/svg"
   xmlns:sodipodi="http://sodipodi.sourceforge.net/DTD/sodipodi-0.dtd"
   xmlns:inkscape="http://www.inkscape.org/namespaces/inkscape"
   version="1.1"
   width="820"
   height="544"
   id="svg2"
   xml:space="preserve"
   inkscape:version="0.48.4 r9939"
   sodipodi:docname="Shylkytunnettu.svg"><sodipodi:namedview
     pagecolor="#ffffff"
     bordercolor="#666666"
     borderopacity="1"
     objecttolerance="10"
     gridtolerance="10"
     guidetolerance="10"
     inkscape:pageopacity="0"
     inkscape:pageshadow="2"
     inkscape:window-width="1920"
     inkscape:window-height="1012"
     id="namedview8"
     showgrid="false"
     inkscape:zoom="0.83333333"
     inkscape:cx="377.27564"
     inkscape:cy="496.81228"
     inkscape:window-x="-8"
     inkscape:window-y="-8"
     inkscape:window-maximized="1"
     inkscape:current-layer="svg2" /><metadata
     id="metadata8"><rdf:RDF><cc:Work
         rdf:about=""><dc:format>image/svg+xml</dc:format><dc:type
           rdf:resource="http://purl.org/dc/dcmitype/StillImage" /></cc:Work></rdf:RDF></metadata><defs
     id="defs6" /><g
     transform="matrix(1.25,0,0,-1.25,319.375,362.125)"
     id="g10"><g
       transform="scale(0.1,0.1)"
       id="g12"><path
         d="m 720,-480 0,2400 m -2000,-1200 4000,0 m -800,600 0,-1200 m -2400,0 0,1200 m -1800,-600 150,0 c 0,82.84 -67.16,150 -150,150 -82.84,0 -150,-67.16 -150,-150 0,-82.84 67.16,-150 150,-150 82.84,0 150,67.16 150,150 m 500,900 150,0 c 0,82.84 -67.16,150 -150,150 -82.84,0 -150,-67.16 -150,-150 0,-82.84 67.16,-150 150,-150 82.84,0 150,67.16 150,150 m 1000,600 150,0 c 0,82.84 -67.16,150 -150,150 -82.84,0 -150,-67.16 -150,-150 0,-82.84 67.16,-150 150,-150 82.84,0 150,67.16 150,150 m 1000,400 150,0 c 0,82.84 -67.16,150 -150,150 -82.84,0 -150,-67.16 -150,-150 0,-82.84 67.16,-150 150,-150 82.84,0 150,67.16 150,150 m 1100,-400 150,0 c 0,82.84 -67.16,150 -150,150 -82.84,0 -150,-67.16 -150,-150 0,-82.84 67.16,-150 150,-150 82.84,0 150,67.16 150,150 m 1000,-600 150,0 c 0,82.84 -67.16,150 -150,150 -82.84,0 -150,-67.16 -150,-150 0,-82.84 67.16,-150 150,-150 82.84,0 150,67.16 150,150 m 500,-900 150,0 c 0,82.84 -67.16,150 -150,150 -82.84,0 -150,-67.16 -150,-150 0,-82.84 67.16,-150 150,-150 82.84,0 150,67.16 150,150 m -700,-900 150,0 c 0,82.8398 -67.16,150 -150,150 -82.84,0 -150,-67.1602 -150,-150 0,-82.84 67.16,-150 150,-150 82.84,0 150,67.16 150,150 m -1300,-600 150,0 c 0,82.84 -67.16,150 -150,150 -82.84,0 -150,-67.16 -150,-150 0,-82.84 67.16,-150 150,-150 82.84,0 150,67.16 150,150 m -1400,-400 150,0 c 0,82.84 -67.16,150 -150,150 -82.84,0 -150,-67.16 -150,-150 0,-82.84 67.16,-150 150,-150 82.84,0 150,67.16 150,150 m -1400,300 150,0 c 0,82.84 -67.16,150 -150,150 -82.84,0 -150,-67.16 -150,-150 0,-82.84 67.16,-150 150,-150 82.84,0 150,67.16 150,150 m -1200,600 150,0 c 0,82.84 -67.16,150 -150,150 -82.84,0 -150,-67.16 -150,-150 0,-82.84 67.16,-150 150,-150 82.84,0 150,67.16 150,150"
         inkscape:connector-curvature="0"
         id="path14"
         style="fill:none;stroke:#000000;stroke-width:250;stroke-linecap:butt;stroke-linejoin:miter;stroke-miterlimit:10;stroke-opacity:1;stroke-dasharray:none" /></g></g></svg>