<?xml version="1.0" encoding="UTF-8" standalone="no"?>
<!-- Created with Inkscape (http://www.inkscape.org/) -->

<svg
   xmlns:dc="http://purl.org/dc/elements/1.1/"
   xmlns:cc="http://creativecommons.org/ns#"
   xmlns:rdf="http://www.w3.org/1999/02/22-rdf-syntax-ns#"
   xmlns:svg="http://www.w3.org/2000/svg"
   xmlns="http://www.w3.org/2000/svg"
   xmlns:sodipodi="http://sodipodi.sourceforge.net/DTD/sodipodi-0.dtd"
   xmlns:inkscape="http://www.inkscape.org/namespaces/inkscape"
   version="1.1"
   width="514.09998"
   height="448"
   id="svg2"
   xml:space="preserve"
   inkscape:version="0.48.4 r9939"
   sodipodi:docname="Spensaikko.svg"><sodipodi:namedview
     pagecolor="#ffffff"
     bordercolor="#666666"
     borderopacity="1"
     objecttolerance="10"
     gridtolerance="10"
     guidetolerance="10"
     inkscape:pageopacity="0"
     inkscape:pageshadow="2"
     inkscape:window-width="1920"
     inkscape:window-height="1012"
     id="namedview8"
     showgrid="false"
     inkscape:zoom="0.58925565"
     inkscape:cx="758.92738"
     inkscape:cy="120.64012"
     inkscape:window-x="-8"
     inkscape:window-y="-8"
     inkscape:window-maximized="1"
     inkscape:current-layer="svg2" /><metadata
     id="metadata8"><rdf:RDF><cc:Work
         rdf:about=""><dc:format>image/svg+xml</dc:format><dc:type
           rdf:resource="http://purl.org/dc/dcmitype/StillImage" /></cc:Work></rdf:RDF></metadata><defs
     id="defs6" /><g
     transform="matrix(1.2500012,0,0,-1.25,156.87515,312.48999)"
     id="g10"><g
       transform="scale(0.1,0.1)"
       id="g12"><path
         d="m 320,-980 -53.629,98.863 C 458.84,-719.637 570,-481.254 570,-230 c 0,469.441 -380.559,850 -850,850 -469.441,0 -850,-380.559 -850,-850 0,-277.32 135.293,-537.211 362.461,-696.277 m 3249.999,-100.003 -53.63,98.862 c 192.47,161.5 303.63,399.887 303.63,651.141 0,469.441 -380.56,850 -850,850 -469.44,0 -850,-380.559 -850,-850 0,-277.325 135.29,-537.215 362.46,-696.282 m -50,1750 -53.63,98.864 c 192.47,161.495 303.63,399.885 303.63,651.135 0,469.44 -380.56,850 -849.998,850 -469.442,0 -850,-380.56 -850,-850 0,-277.32 135.2889,-537.21 362.457,-696.276"
         inkscape:connector-curvature="0"
         id="path14"
         style="fill:none;stroke:#000000;stroke-width:250;stroke-linecap:butt;stroke-linejoin:miter;stroke-miterlimit:10;stroke-opacity:1;stroke-dasharray:none" /></g></g></svg>