<?xml version="1.0" encoding="UTF-8" standalone="no"?>
<!-- Created with Inkscape (http://www.inkscape.org/) -->

<svg
   xmlns:dc="http://purl.org/dc/elements/1.1/"
   xmlns:cc="http://creativecommons.org/ns#"
   xmlns:rdf="http://www.w3.org/1999/02/22-rdf-syntax-ns#"
   xmlns:svg="http://www.w3.org/2000/svg"
   xmlns="http://www.w3.org/2000/svg"
   xmlns:sodipodi="http://sodipodi.sourceforge.net/DTD/sodipodi-0.dtd"
   xmlns:inkscape="http://www.inkscape.org/namespaces/inkscape"
   version="1.1"
   width="233"
   height="665"
   id="svg2"
   xml:space="preserve"
   inkscape:version="0.48.4 r9939"
   sodipodi:docname="SPita.svg"><sodipodi:namedview
     pagecolor="#ffffff"
     bordercolor="#666666"
     borderopacity="1"
     objecttolerance="10"
     gridtolerance="10"
     guidetolerance="10"
     inkscape:pageopacity="0"
     inkscape:pageshadow="2"
     inkscape:window-width="1920"
     inkscape:window-height="1012"
     id="namedview10"
     showgrid="false"
     inkscape:zoom="1.9070707"
     inkscape:cx="-69.309758"
     inkscape:cy="537.68352"
     inkscape:window-x="-8"
     inkscape:window-y="-8"
     inkscape:window-maximized="1"
     inkscape:current-layer="svg2" /><metadata
     id="metadata8"><rdf:RDF><cc:Work
         rdf:about=""><dc:format>image/svg+xml</dc:format><dc:type
           rdf:resource="http://purl.org/dc/dcmitype/StillImage" /></cc:Work></rdf:RDF></metadata><defs
     id="defs6" /><path
     inkscape:transform-center-x="-4.6977656e-005"
     transform="matrix(6.7958235,0,0,6.7958235,4193.903,-701.24914)"
     inkscape:transform-center-y="-25.484331"
     d="m -600,107 6.49519,11.25 6.49519,11.25 -12.99038,0 -12.99038,0 6.49519,-11.25 z"
     inkscape:randomized="0"
     inkscape:rounded="0"
     inkscape:flatsided="false"
     sodipodi:arg2="-0.52359878"
     sodipodi:arg1="-1.5707963"
     sodipodi:r2="7.5000005"
     sodipodi:r1="15"
     sodipodi:cy="122"
     sodipodi:cx="-600"
     sodipodi:sides="3"
     id="path3791"
     style="fill:#000000;fill-opacity:1;stroke:#000000;stroke-width:4;stroke-miterlimit:4;stroke-opacity:1;stroke-dasharray:none"
     sodipodi:type="star" /><g
     transform="matrix(1.25,0,0,-1.25,26.275,739.375)"
     id="g10"><g
       transform="scale(0.1,0.1)"
       id="g12"><path
         d="m -210,720 1860,0 m -930,1310 0,790"
         inkscape:connector-curvature="0"
         id="path14"
         style="fill:none;stroke:#000000;stroke-width:250;stroke-linecap:butt;stroke-linejoin:miter;stroke-miterlimit:10;stroke-opacity:1;stroke-dasharray:none" /><path
         d="m -210,720 1860,0 M 720,2030 720,2820 0,4070 1440,4070 720,2820 707.41525,5472.5 25.169492,4474.1949 1440,4470 854.23729,5438.9407 M 120,4620 l 1200,0 m -100,150 -1000,0 m 100,200 800,0 m -100,200 -600,0 m 150,200 300,0 m -750,-1450 1200,0 m -100,-150 -1000,0 m 100,-200 800,0 m -100,-200 -600,0 m 150,-200 300,0 m 430,-2350 0,750"
         inkscape:connector-curvature="0"
         id="path16"
         style="fill:none;stroke:#000000;stroke-width:200;stroke-linecap:butt;stroke-linejoin:miter;stroke-miterlimit:10;stroke-opacity:1;stroke-dasharray:none"
         sodipodi:nodetypes="ccccccccccccccccccccccccccccccccc" /><path
         d="m 1300,1570 c 0,309.28 -250.72,560 -560,560 -309.277,0 -560,-250.72 -560,-560 l 0,-750"
         inkscape:connector-curvature="0"
         id="path18"
         style="fill:none;stroke:#000000;stroke-width:200;stroke-linecap:butt;stroke-linejoin:miter;stroke-miterlimit:10;stroke-opacity:1;stroke-dasharray:none" /></g></g></svg>