<?xml version="1.0" encoding="UTF-8" standalone="no"?>
<!-- Created with Inkscape (http://www.inkscape.org/) -->

<svg
   xmlns:dc="http://purl.org/dc/elements/1.1/"
   xmlns:cc="http://creativecommons.org/ns#"
   xmlns:rdf="http://www.w3.org/1999/02/22-rdf-syntax-ns#"
   xmlns:svg="http://www.w3.org/2000/svg"
   xmlns="http://www.w3.org/2000/svg"
   xmlns:xlink="http://www.w3.org/1999/xlink"
   xmlns:sodipodi="http://sodipodi.sourceforge.net/DTD/sodipodi-0.dtd"
   xmlns:inkscape="http://www.inkscape.org/namespaces/inkscape"
   version="1.1"
   width="295"
   height="370"
   id="svg2"
   xml:space="preserve"
   inkscape:version="0.48.4 r9939"
   sodipodi:docname="SRmm.svg"><sodipodi:namedview
     pagecolor="#ffffff"
     bordercolor="#666666"
     borderopacity="1"
     objecttolerance="10"
     gridtolerance="10"
     guidetolerance="10"
     inkscape:pageopacity="0"
     inkscape:pageshadow="2"
     inkscape:window-width="1920"
     inkscape:window-height="1012"
     id="namedview8"
     showgrid="false"
     inkscape:zoom="2.2297297"
     inkscape:cx="140.625"
     inkscape:cy="185"
     inkscape:window-x="-8"
     inkscape:window-y="-8"
     inkscape:window-maximized="1"
     inkscape:current-layer="svg2" /><metadata
     id="metadata8"><rdf:RDF><cc:Work
         rdf:about=""><dc:format>image/svg+xml</dc:format><dc:type
           rdf:resource="http://purl.org/dc/dcmitype/StillImage" /></cc:Work></rdf:RDF></metadata><defs
     id="defs6" /><g
     id="g3793"
     transform="translate(6.7510969,0)"><g
       id="g10"
       transform="matrix(1.25,0,0,-1.25,52.276375,443.1783)"><g
         id="g12"
         transform="scale(0.1,0.1)"><path
           style="fill:none;stroke:#000000;stroke-width:250;stroke-linecap:butt;stroke-linejoin:miter;stroke-miterlimit:10;stroke-opacity:1;stroke-dasharray:none"
           id="path14"
           inkscape:connector-curvature="0"
           d="M -280,720 433.211,2510.43 C 299.582,2603.99 220,2756.87 220,2920 c 0,276.14 223.859,500 500,500 276.141,0 500,-223.86 500,-500 0,-163.13 -79.58,-316.01 -213.21,-409.57 l 700,-1800.004 -2000.001,0" /></g></g><path
       inkscape:connector-curvature="0"
       id="path2985"
       d="M 4.4397735,343.83705 -6.2632519,369.76216"
       style="fill:none;stroke:#000000;stroke-width:0.5;stroke-linecap:butt;stroke-linejoin:miter;stroke-miterlimit:4;stroke-opacity:1;stroke-dasharray:none" /><path
       inkscape:connector-curvature="0"
       id="path3755"
       d="m 29.413499,369.76216 -35.9145959,0"
       style="fill:none;stroke:#000000;stroke-width:0.5;stroke-linecap:butt;stroke-linejoin:miter;stroke-miterlimit:4;stroke-opacity:1;stroke-dasharray:none" /><path
       inkscape:connector-curvature="0"
       id="path3757"
       d="m -5.8077949,369.37244 c 0.029574,-0.0709 2.0658202,-5.00272 4.5249925,-10.95969 2.4591723,-5.95697 4.4821685,-10.82417 4.4955477,-10.81598 0.028111,0.0172 11.3956547,4.54886 12.0057677,4.7861 l 0.406318,0.15799 0,8.48021 0,8.4802 -10.7431978,0 -10.7431982,0 0.05377,-0.12883 z"
       style="fill:#000000;fill-opacity:1;stroke-width:10;stroke-miterlimit:4;stroke-dasharray:none" /><use
       transform="translate(4.773678,-9.8899672)"
       height="370"
       width="281.25"
       y="0"
       x="0"
       xlink:href="#path3757"
       id="use3777" /><use
       transform="translate(10.7393,0.47985765)"
       height="370"
       width="281.25"
       y="0"
       x="0"
       xlink:href="#path3757"
       id="use3779" /><path
       inkscape:connector-curvature="0"
       id="path3787"
       d="m -0.7928167,359.73302 c 0.23134658,-0.69404 -0.0620744,0.17071 0.15856334,-0.43605 0.0285595,-0.0785 0.0419079,-0.16309 0.0792817,-0.23784 0.0295465,-0.0591 0.089376,-0.0995 0.11892251,-0.15856 0.0373737,-0.0747 0.0419079,-0.1631 0.0792817,-0.23785 0.0295465,-0.0591 0.0822745,-0.10359 0.1189225,-0.15856 0.0427385,-0.0641 0.0792817,-0.13214 0.11892251,-0.19821 0.03964083,-0.0661 0.08202793,-0.13056 0.1189225,-0.1982 0.08489052,-0.15563 0.15856334,-0.31713 0.23784501,-0.47569 0.0396408,-0.0793 0.0764772,-0.16003 0.1189225,-0.23785 0.0368946,-0.0676 0.0925919,-0.12579 0.11892251,-0.1982 0.0274677,-0.0755 0.006381,-0.16467 0.0396408,-0.23784 0.0350112,-0.077 0.11163105,-0.12781 0.15856334,-0.19821 0.0327789,-0.0492 0.0528545,-0.10571 0.0792817,-0.15856 0.0396408,-0.0793 0.0792817,-0.15857 0.11892251,-0.23785 0.0264272,-0.0528 0.0488785,-0.10789 0.0792817,-0.15856 0.0907462,-0.15124 -0.0164868,0.1205 0.0792817,-0.11892 0.015519,-0.0388 0.018143,-0.0831 0.039641,-0.11893 0.019229,-0.032 0.062568,-0.0458 0.079282,-0.0793 0.011819,-0.0236 -0.00641,-0.0536 0,-0.0793 0.00717,-0.0287 0.026427,-0.0528 0.039641,-0.0793 0.026427,-0.0529 0.050584,-0.10691 0.079282,-0.15856 0.037418,-0.0674 0.084466,-0.12929 0.1189225,-0.19821 0.018687,-0.0374 0.024969,-0.0798 0.039641,-0.11892 0.024985,-0.0666 0.047459,-0.13456 0.079282,-0.1982 0.1413395,-0.28268 0.04734,0.0939 0.1982042,-0.39641 0.023637,-0.0768 0.016545,-0.16086 0.039641,-0.23785 0.01698,-0.0566 0.056004,-0.10425 0.079282,-0.15856 0.01646,-0.0384 0.020954,-0.0815 0.039641,-0.11892 0.086994,-0.17399 0.089066,-0.069 0.1585634,-0.27749 0.00836,-0.0251 -0.00518,-0.0534 0,-0.0793 0.011126,-0.0556 0.1110006,-0.30287 0.1189225,-0.31713 0.032085,-0.0577 0.086837,-0.10081 0.1189225,-0.15856 0.034557,-0.0622 0.052854,-0.13214 0.079282,-0.19821 0.026427,-0.0661 0.05678,-0.13069 0.079282,-0.1982 0.017228,-0.0517 0.022412,-0.10688 0.039641,-0.15856 0.2459516,-0.73786 -0.059934,0.1927 0.1585633,-0.31713 0.021461,-0.0501 0.022412,-0.10688 0.039641,-0.15856 0.00934,-0.028 0.028668,-0.0519 0.039641,-0.0793 0.1307597,-0.3269 -0.092728,0.15908 0.1189225,-0.31713 0.024,-0.054 0.056004,-0.10425 0.079282,-0.15856 0.078968,-0.0675 0.014224,-0.1616 0.039641,-0.23785 -0.00394,-0.10615 0.1271405,-0.11965 0.1585633,-0.1982 0.014722,-0.0368 -0.01089,-0.0808 0,-0.11893 -0.092805,-0.14893 0.094558,-0.12511 0.1189225,-0.1982 0.016714,-0.0501 -0.023637,-0.11129 0,-0.15856 0.016714,-0.0334 0.052855,-0.0529 0.079282,-0.0793 0.013214,-0.0132 0.033731,-0.0219 0.039641,-0.0396 0.011892,-0.0357 -0.011892,-0.0832 0,-0.11892 0.095712,-0.28713 -0.011429,0.0625 0.079282,-0.11892 0.00591,-0.0118 -0.00418,-0.0271 0,-0.0396 0.00934,-0.028 0.030297,-0.0513 0.039641,-0.0793 0.00418,-0.0125 -0.00591,-0.0278 0,-0.0396 0.060444,-0.12089 0.031426,0.0725 0.079282,-0.11893 0.00641,-0.0256 -0.00641,-0.0536 0,-0.0793 0.00717,-0.0287 0.033846,-0.0503 0.039641,-0.0793 0.00777,-0.0389 -0.00777,-0.0801 0,-0.11892 -0.029444,-0.0734 0.067727,-0.0727 0.079282,-0.11893 0.00961,-0.0385 0,-0.0793 0,-0.11892 0.013214,-0.0793 0.018493,-0.1603 0.039641,-0.23784 0.018723,-0.0686 0.063846,-0.12874 0.079282,-0.19821 0.011466,-0.0516 -0.00869,-0.10643 0,-0.15856 0.00486,-0.0292 0.028668,-0.0519 0.039641,-0.0793 0.015519,-0.0388 0.026427,-0.0793 0.039641,-0.11892 0.013214,-0.0396 0.033732,-0.0776 0.039641,-0.11893 0.00747,-0.0523 -0.00869,-0.10643 0,-0.15856 0.00882,-0.0529 0.1042446,-0.17913 0.1189225,-0.23785 0.01315,-0.0526 -0.015556,-0.19117 0,-0.23784 0.00591,-0.0177 0.031284,-0.0229 0.039641,-0.0396 0.00591,-0.0118 0,-0.0264 0,-0.0396 0,-0.0132 0,-0.0264 0,-0.0396"
       style="fill:none;stroke:#000000;stroke-width:1px;stroke-linecap:butt;stroke-linejoin:miter;stroke-opacity:1" /><path
       inkscape:connector-curvature="0"
       id="path3789"
       d="m -5.8668435,369.60359 9.593082,-23.30881"
       style="fill:none;stroke:#000000;stroke-width:1px;stroke-linecap:butt;stroke-linejoin:miter;stroke-opacity:1" /><path
       inkscape:connector-curvature="0"
       id="path3791"
       d="M 5.7479211,369.40538 -5.6686393,369.3261"
       style="fill:none;stroke:#000000;stroke-width:1px;stroke-linecap:butt;stroke-linejoin:miter;stroke-opacity:1" /></g></svg>