<?xml version="1.0" encoding="UTF-8" standalone="no"?>
<!-- Created with Inkscape (http://www.inkscape.org/) -->

<svg
   version="1.1"
   width="2389.2429"
   height="1798.4999"
   id="svg2"
   xml:space="preserve"
   inkscape:version="1.4.3 (unknown)"
   sodipodi:docname="Pkivikko_0_0_0_100-2.svg"
   xmlns:inkscape="http://www.inkscape.org/namespaces/inkscape"
   xmlns:sodipodi="http://sodipodi.sourceforge.net/DTD/sodipodi-0.dtd"
   xmlns="http://www.w3.org/2000/svg"
   xmlns:svg="http://www.w3.org/2000/svg"
   xmlns:rdf="http://www.w3.org/1999/02/22-rdf-syntax-ns#"
   xmlns:cc="http://creativecommons.org/ns#"
   xmlns:dc="http://purl.org/dc/elements/1.1/"><sodipodi:namedview
     pagecolor="#ffffff"
     bordercolor="#666666"
     borderopacity="1"
     objecttolerance="10"
     gridtolerance="10"
     guidetolerance="10"
     inkscape:pageopacity="0"
     inkscape:pageshadow="2"
     inkscape:window-width="2508"
     inkscape:window-height="1412"
     id="namedview16"
     showgrid="false"
     inkscape:zoom="0.16875"
     inkscape:cx="1641.4815"
     inkscape:cy="-746.66667"
     inkscape:window-x="0"
     inkscape:window-y="0"
     inkscape:window-maximized="1"
     inkscape:current-layer="svg2"
     inkscape:showpageshadow="2"
     inkscape:pagecheckerboard="0"
     inkscape:deskcolor="#d1d1d1" /><metadata
     id="metadata8"><rdf:RDF><cc:Work
         rdf:about=""><dc:format>image/svg+xml</dc:format><dc:type
           rdf:resource="http://purl.org/dc/dcmitype/StillImage" /></cc:Work></rdf:RDF></metadata><defs
     id="defs6" /><path
     style="fill:#000000;fill-opacity:1;fill-rule:nonzero;stroke:none"
     id="path3278"
     inkscape:connector-curvature="0"
     d="m 31.3079,1721.3603 43.4297,-117.26 73.8303,78.1733 -117.26,39.0867" /><path
     style="fill:#000000;fill-opacity:1;fill-rule:nonzero;stroke:none"
     id="path3280"
     inkscape:connector-curvature="0"
     d="m 0,1559.4032 19.0581,-133.407 90.5262,95.2907 L 0,1559.4032" /><path
     style="fill:#000000;fill-opacity:1;fill-rule:nonzero;stroke:none"
     id="path3282"
     inkscape:connector-curvature="0"
     d="m 38.0279,1381.5311 95.0177,-95.0177 42.758,109.2704 -137.7757,-14.2527" /><path
     style="fill:#000000;fill-opacity:1;fill-rule:nonzero;stroke:none"
     id="path3284"
     inkscape:connector-curvature="0"
     d="m 187.722,1685.9264 121.233,38.9678 -77.9355,73.6057 -43.2975,-112.5735" /><path
     style="fill:#000000;fill-opacity:1;fill-rule:nonzero;stroke:none"
     id="path3286"
     inkscape:connector-curvature="0"
     d="m 216.1421,1600.6992 71.9492,-113.0631 71.9493,97.6454 -143.8985,15.4177" /><path
     style="fill:#000000;fill-opacity:1;fill-rule:nonzero;stroke:none"
     id="path3288"
     inkscape:connector-curvature="0"
     d="m 272.8981,1356.8272 -8.8543,-123.9598 97.397,44.2713 -88.5427,79.6885" /><path
     style="fill:#000000;fill-opacity:1;fill-rule:nonzero;stroke:none"
     id="path3290"
     inkscape:connector-curvature="0"
     d="m 430.051,1733.5099 60.6165,-86.595 60.6165,103.914 -121.233,-17.319" /><path
     style="fill:#000000;fill-opacity:1;fill-rule:nonzero;stroke:none"
     id="path3292"
     inkscape:connector-curvature="0"
     d="m 426.243,1516.4449 -51.809,-94.9831 h 125.205 l -73.396,94.9831" /><path
     style="fill:#000000;fill-opacity:1;fill-rule:nonzero;stroke:none"
     id="path3294"
     inkscape:connector-curvature="0"
     d="M 471.5904,1282.7874 550.0205,1200 l 34.8579,91.5019 -113.288,-8.7145" /><path
     d="m 635.736,1715.0749 43.4297,-117.26 73.8303,78.1733 -117.26,39.0867"
     inkscape:connector-curvature="0"
     id="path3296"
     style="fill:#000000;fill-opacity:1;fill-rule:nonzero;stroke:none" /><path
     d="m 579.4662,1568.5244 19.0582,-133.407 90.5262,95.2907 -109.5844,38.1163"
     inkscape:connector-curvature="0"
     id="path3298"
     style="fill:#000000;fill-opacity:1;fill-rule:nonzero;stroke:none" /><path
     d="m 622.9861,1365.0012 86.3483,-86.3483 38.8567,99.3005 -125.205,-12.9522"
     inkscape:connector-curvature="0"
     id="path3300"
     style="fill:#000000;fill-opacity:1;fill-rule:nonzero;stroke:none" /><path
     d="m 794.2453,1684.8788 121.233,38.9678 -77.9355,73.6057 -43.2975,-112.5735"
     inkscape:connector-curvature="0"
     id="path3302"
     style="fill:#000000;fill-opacity:1;fill-rule:nonzero;stroke:none" /><path
     d="m 835.2361,1598.6041 65.8543,-114.1107 65.8543,98.5501 -131.7086,15.5606"
     inkscape:connector-curvature="0"
     id="path3304"
     style="fill:#000000;fill-opacity:1;fill-rule:nonzero;stroke:none" /><path
     d="m 889.2725,1391.8526 -8.8543,-123.9598 97.397,44.2713 -88.5427,79.6885"
     inkscape:connector-curvature="0"
     id="path3306"
     style="fill:#000000;fill-opacity:1;fill-rule:nonzero;stroke:none" /><path
     d="m 1065.9061,1748.1758 60.6165,-86.595 60.6165,103.914 -121.233,-17.319"
     inkscape:connector-curvature="0"
     id="path3308"
     style="fill:#000000;fill-opacity:1;fill-rule:nonzero;stroke:none" /><path
     d="m 1063.1457,1542.634 -51.8091,-94.9831 h 125.2051 l -73.396,94.9831"
     inkscape:connector-curvature="0"
     id="path3310"
     style="fill:#000000;fill-opacity:1;fill-rule:nonzero;stroke:none" /><path
     d="m 1078.9178,1290.1204 78.4302,-82.7874 34.8578,91.5019 -113.288,-8.7145"
     inkscape:connector-curvature="0"
     id="path3312"
     style="fill:#000000;fill-opacity:1;fill-rule:nonzero;stroke:none" /><path
     d="m 31.3079,1121.3603 43.4297,-117.26 73.8303,78.1733 -117.26,39.0867"
     inkscape:connector-curvature="0"
     id="path3314"
     style="fill:#000000;fill-opacity:1;fill-rule:nonzero;stroke:none" /><path
     d="M 0,959.4032 19.0581,825.9962 109.5843,921.2869 0,959.4032"
     inkscape:connector-curvature="0"
     id="path3316"
     style="fill:#000000;fill-opacity:1;fill-rule:nonzero;stroke:none" /><path
     d="m 38.0279,781.5311 95.0177,-95.0177 42.758,109.2704 -137.7757,-14.2527"
     inkscape:connector-curvature="0"
     id="path3318"
     style="fill:#000000;fill-opacity:1;fill-rule:nonzero;stroke:none" /><path
     d="m 187.722,1085.9264 121.233,38.9678 -77.9355,73.6057 -43.2975,-112.5735"
     inkscape:connector-curvature="0"
     id="path3320"
     style="fill:#000000;fill-opacity:1;fill-rule:nonzero;stroke:none" /><path
     d="m 216.1421,1000.6992 71.9492,-113.0631 71.9493,97.6454 -143.8985,15.4177"
     inkscape:connector-curvature="0"
     id="path3322"
     style="fill:#000000;fill-opacity:1;fill-rule:nonzero;stroke:none" /><path
     d="m 272.8981,756.8272 -8.8543,-123.9598 97.397,44.2713 -88.5427,79.6885"
     inkscape:connector-curvature="0"
     id="path3324"
     style="fill:#000000;fill-opacity:1;fill-rule:nonzero;stroke:none" /><path
     d="m 430.051,1133.5099 60.6165,-86.595 60.6165,103.914 -121.233,-17.319"
     inkscape:connector-curvature="0"
     id="path3326"
     style="fill:#000000;fill-opacity:1;fill-rule:nonzero;stroke:none" /><path
     d="m 426.243,916.4449 -51.809,-94.9831 h 125.205 l -73.396,94.9831"
     inkscape:connector-curvature="0"
     id="path3328"
     style="fill:#000000;fill-opacity:1;fill-rule:nonzero;stroke:none" /><path
     d="M 471.5904,682.7874 550.0205,600 l 34.8579,91.5019 -113.288,-8.7145"
     inkscape:connector-curvature="0"
     id="path3330"
     style="fill:#000000;fill-opacity:1;fill-rule:nonzero;stroke:none" /><path
     style="fill:#000000;fill-opacity:1;fill-rule:nonzero;stroke:none"
     id="path3332"
     inkscape:connector-curvature="0"
     d="m 635.736,1115.0749 43.4297,-117.26 73.8303,78.1733 -117.26,39.0867" /><path
     style="fill:#000000;fill-opacity:1;fill-rule:nonzero;stroke:none"
     id="path3334"
     inkscape:connector-curvature="0"
     d="m 579.4662,968.5244 19.0582,-133.407 90.5262,95.2907 -109.5844,38.1163" /><path
     style="fill:#000000;fill-opacity:1;fill-rule:nonzero;stroke:none"
     id="path3336"
     inkscape:connector-curvature="0"
     d="m 622.9861,765.0012 86.3483,-86.3483 38.8567,99.3005 -125.205,-12.9522" /><path
     style="fill:#000000;fill-opacity:1;fill-rule:nonzero;stroke:none"
     id="path3338"
     inkscape:connector-curvature="0"
     d="m 794.2453,1084.8788 121.233,38.9678 -77.9355,73.6057 -43.2975,-112.5735" /><path
     style="fill:#000000;fill-opacity:1;fill-rule:nonzero;stroke:none"
     id="path3340"
     inkscape:connector-curvature="0"
     d="m 835.2361,998.6041 65.8543,-114.1107 65.8543,98.5501 -131.7086,15.5606" /><path
     style="fill:#000000;fill-opacity:1;fill-rule:nonzero;stroke:none"
     id="path3342"
     inkscape:connector-curvature="0"
     d="m 889.2725,791.8526 -8.8543,-123.9598 97.397,44.2713 -88.5427,79.6885" /><path
     style="fill:#000000;fill-opacity:1;fill-rule:nonzero;stroke:none"
     id="path3344"
     inkscape:connector-curvature="0"
     d="m 1065.9061,1148.1758 60.6165,-86.595 60.6165,103.914 -121.233,-17.319" /><path
     style="fill:#000000;fill-opacity:1;fill-rule:nonzero;stroke:none"
     id="path3346"
     inkscape:connector-curvature="0"
     d="m 1063.1457,942.634 -51.8091,-94.9831 h 125.2051 l -73.396,94.9831" /><path
     style="fill:#000000;fill-opacity:1;fill-rule:nonzero;stroke:none"
     id="path3348"
     inkscape:connector-curvature="0"
     d="m 1078.9178,690.1204 78.4302,-82.7874 34.8578,91.5019 -113.288,-8.7145" /><path
     d="m 1228.3449,1721.3603 43.4297,-117.26 73.8303,78.1733 -117.26,39.0867"
     inkscape:connector-curvature="0"
     id="path3350"
     style="fill:#000000;fill-opacity:1;fill-rule:nonzero;stroke:none" /><path
     d="m 1197.037,1559.4032 19.0581,-133.407 90.5262,95.2907 -109.5843,38.1163"
     inkscape:connector-curvature="0"
     id="path3352"
     style="fill:#000000;fill-opacity:1;fill-rule:nonzero;stroke:none" /><path
     d="m 1235.0649,1381.5311 95.0177,-95.0177 42.758,109.2704 -137.7757,-14.2527"
     inkscape:connector-curvature="0"
     id="path3354"
     style="fill:#000000;fill-opacity:1;fill-rule:nonzero;stroke:none" /><path
     d="m 1384.759,1685.9264 121.233,38.9678 -77.9355,73.6057 -43.2975,-112.5735"
     inkscape:connector-curvature="0"
     id="path3356"
     style="fill:#000000;fill-opacity:1;fill-rule:nonzero;stroke:none" /><path
     d="m 1413.1791,1600.6992 71.9492,-113.0631 71.9493,97.6454 -143.8985,15.4177"
     inkscape:connector-curvature="0"
     id="path3358"
     style="fill:#000000;fill-opacity:1;fill-rule:nonzero;stroke:none" /><path
     d="m 1469.9351,1356.8272 -8.8543,-123.9598 97.397,44.2713 -88.5427,79.6885"
     inkscape:connector-curvature="0"
     id="path3360"
     style="fill:#000000;fill-opacity:1;fill-rule:nonzero;stroke:none" /><path
     d="m 1627.088,1733.5099 60.6165,-86.595 60.6165,103.914 -121.233,-17.319"
     inkscape:connector-curvature="0"
     id="path3362"
     style="fill:#000000;fill-opacity:1;fill-rule:nonzero;stroke:none" /><path
     d="m 1623.28,1516.4449 -51.809,-94.9831 h 125.205 l -73.396,94.9831"
     inkscape:connector-curvature="0"
     id="path3364"
     style="fill:#000000;fill-opacity:1;fill-rule:nonzero;stroke:none" /><path
     d="m 1668.6274,1282.7874 78.4301,-82.7874 34.8579,91.5019 -113.288,-8.7145"
     inkscape:connector-curvature="0"
     id="path3366"
     style="fill:#000000;fill-opacity:1;fill-rule:nonzero;stroke:none" /><path
     style="fill:#000000;fill-opacity:1;fill-rule:nonzero;stroke:none"
     id="path3368"
     inkscape:connector-curvature="0"
     d="m 1832.773,1715.0749 43.4297,-117.26 73.8303,78.1733 -117.26,39.0867" /><path
     style="fill:#000000;fill-opacity:1;fill-rule:nonzero;stroke:none"
     id="path3370"
     inkscape:connector-curvature="0"
     d="m 1776.5032,1568.5244 19.0582,-133.407 90.5262,95.2907 -109.5844,38.1163" /><path
     style="fill:#000000;fill-opacity:1;fill-rule:nonzero;stroke:none"
     id="path3372"
     inkscape:connector-curvature="0"
     d="m 1820.0231,1365.0012 86.3483,-86.3483 38.8567,99.3005 -125.205,-12.9522" /><path
     style="fill:#000000;fill-opacity:1;fill-rule:nonzero;stroke:none"
     id="path3374"
     inkscape:connector-curvature="0"
     d="m 1991.2823,1684.8788 121.233,38.9678 -77.9355,73.6057 -43.2975,-112.5735" /><path
     style="fill:#000000;fill-opacity:1;fill-rule:nonzero;stroke:none"
     id="path3376"
     inkscape:connector-curvature="0"
     d="m 2032.2731,1598.6041 65.8543,-114.1107 65.8543,98.5501 -131.7086,15.5606" /><path
     style="fill:#000000;fill-opacity:1;fill-rule:nonzero;stroke:none"
     id="path3378"
     inkscape:connector-curvature="0"
     d="m 2086.3095,1391.8526 -8.8543,-123.9598 97.397,44.2713 -88.5427,79.6885" /><path
     style="fill:#000000;fill-opacity:1;fill-rule:nonzero;stroke:none"
     id="path3380"
     inkscape:connector-curvature="0"
     d="m 2262.9431,1748.1758 60.6165,-86.595 60.6165,103.914 -121.233,-17.319" /><path
     style="fill:#000000;fill-opacity:1;fill-rule:nonzero;stroke:none"
     id="path3382"
     inkscape:connector-curvature="0"
     d="m 2260.1827,1542.634 -51.8091,-94.9831 h 125.2051 l -73.396,94.9831" /><path
     style="fill:#000000;fill-opacity:1;fill-rule:nonzero;stroke:none"
     id="path3384"
     inkscape:connector-curvature="0"
     d="m 2275.9548,1290.1204 78.4302,-82.7874 34.8578,91.5019 -113.288,-8.7145" /><path
     style="fill:#000000;fill-opacity:1;fill-rule:nonzero;stroke:none"
     id="path3386"
     inkscape:connector-curvature="0"
     d="m 1228.3449,1121.3603 43.4297,-117.26 73.8303,78.1733 -117.26,39.0867" /><path
     style="fill:#000000;fill-opacity:1;fill-rule:nonzero;stroke:none"
     id="path3388"
     inkscape:connector-curvature="0"
     d="m 1197.037,959.4032 19.0581,-133.407 90.5262,95.2907 -109.5843,38.1163" /><path
     style="fill:#000000;fill-opacity:1;fill-rule:nonzero;stroke:none"
     id="path3390"
     inkscape:connector-curvature="0"
     d="m 1235.0649,781.5311 95.0177,-95.0177 42.758,109.2704 -137.7757,-14.2527" /><path
     style="fill:#000000;fill-opacity:1;fill-rule:nonzero;stroke:none"
     id="path3392"
     inkscape:connector-curvature="0"
     d="m 1384.759,1085.9264 121.233,38.9678 -77.9355,73.6057 -43.2975,-112.5735" /><path
     style="fill:#000000;fill-opacity:1;fill-rule:nonzero;stroke:none"
     id="path3394"
     inkscape:connector-curvature="0"
     d="m 1413.1791,1000.6992 71.9492,-113.0631 71.9493,97.6454 -143.8985,15.4177" /><path
     style="fill:#000000;fill-opacity:1;fill-rule:nonzero;stroke:none"
     id="path3396"
     inkscape:connector-curvature="0"
     d="m 1469.9351,756.8272 -8.8543,-123.9598 97.397,44.2713 -88.5427,79.6885" /><path
     style="fill:#000000;fill-opacity:1;fill-rule:nonzero;stroke:none"
     id="path3398"
     inkscape:connector-curvature="0"
     d="m 1627.088,1133.5099 60.6165,-86.595 60.6165,103.914 -121.233,-17.319" /><path
     style="fill:#000000;fill-opacity:1;fill-rule:nonzero;stroke:none"
     id="path3400"
     inkscape:connector-curvature="0"
     d="m 1623.28,916.4449 -51.809,-94.9831 h 125.205 l -73.396,94.9831" /><path
     style="fill:#000000;fill-opacity:1;fill-rule:nonzero;stroke:none"
     id="path3402"
     inkscape:connector-curvature="0"
     d="M 1668.6274,682.7874 1747.0575,600 l 34.8579,91.5019 -113.288,-8.7145" /><path
     d="m 1832.773,1115.0749 43.4297,-117.26 73.8303,78.1733 -117.26,39.0867"
     inkscape:connector-curvature="0"
     id="path3404"
     style="fill:#000000;fill-opacity:1;fill-rule:nonzero;stroke:none" /><path
     d="m 1776.5032,968.5244 19.0582,-133.407 90.5262,95.2907 -109.5844,38.1163"
     inkscape:connector-curvature="0"
     id="path3406"
     style="fill:#000000;fill-opacity:1;fill-rule:nonzero;stroke:none" /><path
     d="m 1820.0231,765.0012 86.3483,-86.3483 38.8567,99.3005 -125.205,-12.9522"
     inkscape:connector-curvature="0"
     id="path3408"
     style="fill:#000000;fill-opacity:1;fill-rule:nonzero;stroke:none" /><path
     d="m 1991.2823,1084.8788 121.233,38.9678 -77.9355,73.6057 -43.2975,-112.5735"
     inkscape:connector-curvature="0"
     id="path3410"
     style="fill:#000000;fill-opacity:1;fill-rule:nonzero;stroke:none" /><path
     d="m 2032.2731,998.6041 65.8543,-114.1107 65.8543,98.5501 -131.7086,15.5606"
     inkscape:connector-curvature="0"
     id="path3412"
     style="fill:#000000;fill-opacity:1;fill-rule:nonzero;stroke:none" /><path
     d="m 2086.3095,791.8526 -8.8543,-123.9598 97.397,44.2713 -88.5427,79.6885"
     inkscape:connector-curvature="0"
     id="path3414"
     style="fill:#000000;fill-opacity:1;fill-rule:nonzero;stroke:none" /><path
     d="m 2262.9431,1148.1758 60.6165,-86.595 60.6165,103.914 -121.233,-17.319"
     inkscape:connector-curvature="0"
     id="path3416"
     style="fill:#000000;fill-opacity:1;fill-rule:nonzero;stroke:none" /><path
     d="m 2260.1827,942.634 -51.8091,-94.9831 h 125.2051 l -73.396,94.9831"
     inkscape:connector-curvature="0"
     id="path3418"
     style="fill:#000000;fill-opacity:1;fill-rule:nonzero;stroke:none" /><path
     d="m 2275.9548,690.1204 78.4302,-82.7874 34.8578,91.5019 -113.288,-8.7145"
     inkscape:connector-curvature="0"
     id="path3420"
     style="fill:#000000;fill-opacity:1;fill-rule:nonzero;stroke:none" /><path
     d="m 31.3079,521.3603 43.4297,-117.26 73.8303,78.1733 -117.26,39.0867"
     inkscape:connector-curvature="0"
     id="path3422"
     style="fill:#000000;fill-opacity:1;fill-rule:nonzero;stroke:none" /><path
     d="M 0,359.4032 19.0581,225.9962 109.5843,321.2869 0,359.4032"
     inkscape:connector-curvature="0"
     id="path3424"
     style="fill:#000000;fill-opacity:1;fill-rule:nonzero;stroke:none" /><path
     d="M 38.0279,181.5311 133.0456,86.5134 175.8036,195.7838 38.0279,181.5311"
     inkscape:connector-curvature="0"
     id="path3426"
     style="fill:#000000;fill-opacity:1;fill-rule:nonzero;stroke:none" /><path
     d="M 187.722,485.9264 308.955,524.8942 231.0195,598.4999 187.722,485.9264"
     inkscape:connector-curvature="0"
     id="path3428"
     style="fill:#000000;fill-opacity:1;fill-rule:nonzero;stroke:none" /><path
     d="m 216.1421,400.6992 71.9492,-113.0631 71.9493,97.6454 -143.8985,15.4177"
     inkscape:connector-curvature="0"
     id="path3430"
     style="fill:#000000;fill-opacity:1;fill-rule:nonzero;stroke:none" /><path
     d="m 272.8981,156.8272 -8.8543,-123.9598 97.397,44.2713 -88.5427,79.6885"
     inkscape:connector-curvature="0"
     id="path3432"
     style="fill:#000000;fill-opacity:1;fill-rule:nonzero;stroke:none" /><path
     d="m 430.051,533.5099 60.6165,-86.595 60.6165,103.914 -121.233,-17.319"
     inkscape:connector-curvature="0"
     id="path3434"
     style="fill:#000000;fill-opacity:1;fill-rule:nonzero;stroke:none" /><path
     d="m 426.243,316.4449 -51.809,-94.9831 h 125.205 l -73.396,94.9831"
     inkscape:connector-curvature="0"
     id="path3436"
     style="fill:#000000;fill-opacity:1;fill-rule:nonzero;stroke:none" /><path
     d="M 471.5904,82.7874 550.0205,0 584.8784,91.5019 471.5904,82.7874"
     inkscape:connector-curvature="0"
     id="path3438"
     style="fill:#000000;fill-opacity:1;fill-rule:nonzero;stroke:none" /><path
     style="fill:#000000;fill-opacity:1;fill-rule:nonzero;stroke:none"
     id="path3440"
     inkscape:connector-curvature="0"
     d="m 635.736,515.0749 43.4297,-117.26 73.8303,78.1733 -117.26,39.0867" /><path
     style="fill:#000000;fill-opacity:1;fill-rule:nonzero;stroke:none"
     id="path3442"
     inkscape:connector-curvature="0"
     d="m 579.4662,368.5244 19.0582,-133.407 90.5262,95.2907 -109.5844,38.1163" /><path
     style="fill:#000000;fill-opacity:1;fill-rule:nonzero;stroke:none"
     id="path3444"
     inkscape:connector-curvature="0"
     d="m 622.9861,165.0012 86.3483,-86.3483 38.8567,99.3005 -125.205,-12.9522" /><path
     style="fill:#000000;fill-opacity:1;fill-rule:nonzero;stroke:none"
     id="path3446"
     inkscape:connector-curvature="0"
     d="m 794.2453,484.8788 121.233,38.9678 -77.9355,73.6057 -43.2975,-112.5735" /><path
     style="fill:#000000;fill-opacity:1;fill-rule:nonzero;stroke:none"
     id="path3448"
     inkscape:connector-curvature="0"
     d="m 835.2361,398.6041 65.8543,-114.1107 65.8543,98.5501 -131.7086,15.5606" /><path
     style="fill:#000000;fill-opacity:1;fill-rule:nonzero;stroke:none"
     id="path3450"
     inkscape:connector-curvature="0"
     d="m 889.2725,191.8526 -8.8543,-123.9598 97.397,44.2713 -88.5427,79.6885" /><path
     style="fill:#000000;fill-opacity:1;fill-rule:nonzero;stroke:none"
     id="path3452"
     inkscape:connector-curvature="0"
     d="m 1065.9061,548.1758 60.6165,-86.595 60.6165,103.914 -121.233,-17.319" /><path
     style="fill:#000000;fill-opacity:1;fill-rule:nonzero;stroke:none"
     id="path3454"
     inkscape:connector-curvature="0"
     d="m 1063.1457,342.634 -51.8091,-94.9831 h 125.2051 l -73.396,94.9831" /><path
     style="fill:#000000;fill-opacity:1;fill-rule:nonzero;stroke:none"
     id="path3456"
     inkscape:connector-curvature="0"
     d="m 1078.9178,90.1204 78.4302,-82.7874 34.8578,91.5019 -113.288,-8.7145" /><path
     style="fill:#000000;fill-opacity:1;fill-rule:nonzero;stroke:none"
     id="path3494"
     inkscape:connector-curvature="0"
     d="m 1228.3449,521.3603 43.4297,-117.26 73.8303,78.1733 -117.26,39.0867" /><path
     style="fill:#000000;fill-opacity:1;fill-rule:nonzero;stroke:none"
     id="path3496"
     inkscape:connector-curvature="0"
     d="m 1197.037,359.4032 19.0581,-133.407 90.5262,95.2907 -109.5843,38.1163" /><path
     style="fill:#000000;fill-opacity:1;fill-rule:nonzero;stroke:none"
     id="path3498"
     inkscape:connector-curvature="0"
     d="m 1235.0649,181.5311 95.0177,-95.0177 42.758,109.2704 -137.7757,-14.2527" /><path
     style="fill:#000000;fill-opacity:1;fill-rule:nonzero;stroke:none"
     id="path3500"
     inkscape:connector-curvature="0"
     d="m 1384.759,485.9264 121.233,38.9678 -77.9355,73.6057 -43.2975,-112.5735" /><path
     style="fill:#000000;fill-opacity:1;fill-rule:nonzero;stroke:none"
     id="path3502"
     inkscape:connector-curvature="0"
     d="m 1413.1791,400.6992 71.9492,-113.0631 71.9493,97.6454 -143.8985,15.4177" /><path
     style="fill:#000000;fill-opacity:1;fill-rule:nonzero;stroke:none"
     id="path3504"
     inkscape:connector-curvature="0"
     d="m 1469.9351,156.8272 -8.8543,-123.9598 97.397,44.2713 -88.5427,79.6885" /><path
     style="fill:#000000;fill-opacity:1;fill-rule:nonzero;stroke:none"
     id="path3506"
     inkscape:connector-curvature="0"
     d="m 1627.088,533.5099 60.6165,-86.595 60.6165,103.914 -121.233,-17.319" /><path
     style="fill:#000000;fill-opacity:1;fill-rule:nonzero;stroke:none"
     id="path3508"
     inkscape:connector-curvature="0"
     d="m 1623.28,316.4449 -51.809,-94.9831 h 125.205 l -73.396,94.9831" /><path
     style="fill:#000000;fill-opacity:1;fill-rule:nonzero;stroke:none"
     id="path3510"
     inkscape:connector-curvature="0"
     d="M 1668.6274,82.7874 1747.0575,0 l 34.8579,91.5019 -113.288,-8.7145" /><path
     d="m 1832.773,515.0749 43.4297,-117.26 73.8303,78.1733 -117.26,39.0867"
     inkscape:connector-curvature="0"
     id="path3512"
     style="fill:#000000;fill-opacity:1;fill-rule:nonzero;stroke:none" /><path
     d="m 1776.5032,368.5244 19.0582,-133.407 90.5262,95.2907 -109.5844,38.1163"
     inkscape:connector-curvature="0"
     id="path3514"
     style="fill:#000000;fill-opacity:1;fill-rule:nonzero;stroke:none" /><path
     d="m 1820.0231,165.0012 86.3483,-86.3483 38.8567,99.3005 -125.205,-12.9522"
     inkscape:connector-curvature="0"
     id="path3516"
     style="fill:#000000;fill-opacity:1;fill-rule:nonzero;stroke:none" /><path
     d="m 1991.2823,484.8788 121.233,38.9678 -77.9355,73.6057 -43.2975,-112.5735"
     inkscape:connector-curvature="0"
     id="path3518"
     style="fill:#000000;fill-opacity:1;fill-rule:nonzero;stroke:none" /><path
     d="m 2032.2731,398.6041 65.8543,-114.1107 65.8543,98.5501 -131.7086,15.5606"
     inkscape:connector-curvature="0"
     id="path3520"
     style="fill:#000000;fill-opacity:1;fill-rule:nonzero;stroke:none" /><path
     d="m 2086.3095,191.8526 -8.8543,-123.9598 97.397,44.2713 -88.5427,79.6885"
     inkscape:connector-curvature="0"
     id="path3522"
     style="fill:#000000;fill-opacity:1;fill-rule:nonzero;stroke:none" /><path
     d="m 2262.9431,548.1758 60.6165,-86.595 60.6165,103.914 -121.233,-17.319"
     inkscape:connector-curvature="0"
     id="path3524"
     style="fill:#000000;fill-opacity:1;fill-rule:nonzero;stroke:none" /><path
     d="m 2260.1827,342.634 -51.8091,-94.9831 h 125.2051 l -73.396,94.9831"
     inkscape:connector-curvature="0"
     id="path3526"
     style="fill:#000000;fill-opacity:1;fill-rule:nonzero;stroke:none" /><path
     d="m 2275.9548,90.1204 78.4302,-82.7874 34.8578,91.5019 -113.288,-8.7145"
     inkscape:connector-curvature="0"
     id="path3528"
     style="fill:#000000;fill-opacity:1;fill-rule:nonzero;stroke:none" /></svg>
