<svg xmlns="http://www.w3.org/2000/svg" xml:space="preserve" width="526" height="104"><path d="M687.762 954.16C444.629 1158.17 137.387 1270-180 1270c-432.141 0-838.17-206.88-1092.17-556.488M723.637 933.57a1550.036 1550.036 0 0 1 844.193-250.058c448.71 0 875.42 194.457 1169.8 533.108" style="fill:none;stroke:#000;stroke-width:250;stroke-linecap:butt;stroke-linejoin:miter;stroke-miterlimit:10;stroke-opacity:1;stroke-dasharray:none" transform="matrix(.13 0 0 -.13 171.646 173.814)"/><path d="m247.521 65.884 9.96 6.034M264.586 41.105l9.96 6.035" style="fill:none;stroke:#000;stroke-width:1px;stroke-linecap:butt;stroke-linejoin:miter;stroke-opacity:1"/><path d="M251.351 67.582c-1.598-.967-2.897-1.78-2.886-1.807.022-.056 18.244-22.283 18.418-22.466l.115-.122 1.37.828c.752.455 1.388.846 1.412.868.036.033-15.276 24.185-15.465 24.394-.045.05-.746-.352-2.964-1.695z" style="fill:#000;fill-opacity:1"/><path d="m248.364 66.067 18.544-22.824M265.217 42.24l5.125 3.01M269.972 44.88 254.175 69.5M248.575 65.802l6.71 4.174" style="fill:none;stroke:#000;stroke-width:1px;stroke-linecap:butt;stroke-linejoin:miter;stroke-opacity:1"/></svg>