<svg xmlns="http://www.w3.org/2000/svg" xml:space="preserve" width="269" height="884"><path d="m-600 107 6.495 11.25 6.495 11.25h-25.98l6.495-11.25z" style="fill:#000;fill-opacity:1;stroke:#000;stroke-width:4;stroke-miterlimit:4;stroke-opacity:1;stroke-dasharray:none" transform="matrix(6.79582 0 0 6.79582 4211.532 -700.101)"/><path d="M-360 720h2150m-380 0L710 4320 10 720m150 50 600 3200m50-400L310 720m150 0 400 2400m50-400L610 720m150 0 200 1700m150-400L910 820m150 0 100 700m100-350-50-350M710 4370v3100" style="fill:none;stroke:#000;stroke-width:250;stroke-linecap:butt;stroke-linejoin:miter;stroke-miterlimit:10;stroke-opacity:1;stroke-dasharray:none" transform="matrix(.13 0 0 -.13 45.025 958.375)"/><path d="M-360 720h2150m-380 0L710 4320 10 720m150 50 600 3200m50-400L310 720m150 0 400 2400m50-400L610 720m150 0 200 1700m150-400L910 820m150 0 100 700m100-350-50-350M710 4370l-33.56 2739.237-376.016-813.729L710 6220-10 4970h1440L710 6220h720L814.873 7243.475M110 5120h1200m-100 150H210m100 200h800m-100 200H410m150 200h300m-750 500h1200m-100 150H210m100 200h800m-100 200H410m150 200h300" style="fill:none;stroke:#000;stroke-width:200;stroke-linecap:butt;stroke-linejoin:miter;stroke-miterlimit:10;stroke-opacity:1;stroke-dasharray:none" transform="matrix(.13 0 0 -.13 45.025 958.375)"/></svg>