<svg xmlns="http://www.w3.org/2000/svg" xml:space="preserve" width="281.25" height="515"><path d="M720 720v1000c-552.281 0-1000-447.72-1000-1000 0-552.281 447.719-1000 1000-1000 552.28 0 1000 447.719 1000 1000 0 552.28-447.72 1000-1000 1000v2000m1000-1000H-280" style="fill:none;stroke:#231f20;stroke-width:250;stroke-linecap:butt;stroke-linejoin:miter;stroke-miterlimit:10;stroke-opacity:1;stroke-dasharray:none" transform="matrix(.13 0 0 -.13 50.625 464.375)"/><path d="M1620 720c0 497.05-402.95 900-900 900-497.055 0-900-402.95-900-900 0-497.055 402.945-900 900-900 497.05 0 900 402.945 900 900" style="fill:#fff;fill-opacity:1;fill-rule:nonzero;stroke:none" transform="matrix(.13 0 0 -.13 50.625 464.375)"/></svg>