<svg xmlns="http://www.w3.org/2000/svg" xml:space="preserve" width="325" height="375"><path d="m720 2220-380-950-920 200 550-750-550-750 920 200 380-950 380 950 920-200-550 750 550 750-920-200-380 950" style="fill:#231f20;fill-opacity:1;fill-rule:nonzero;stroke:none" transform="matrix(.13 0 0 -.13 72.5 277.5)"/><path d="M880 720c0 88.363-71.637 160-160 160s-160-71.637-160-160 71.637-160 160-160 160 71.637 160 160" style="fill:#fff;fill-opacity:1;fill-rule:nonzero;stroke:none" transform="matrix(.13 0 0 -.13 72.5 277.5)"/></svg>