<svg xmlns="http://www.w3.org/2000/svg" xml:space="preserve" width="220" height="220"><path d="M720 720h850c0 469.44-380.56 850-850 850-469.441 0-850-380.56-850-850 0-469.441 380.559-850 850-850 469.44 0 850 380.559 850 850" style="fill:#000;fill-opacity:1;fill-rule:nonzero;stroke:none" transform="matrix(.13 0 0 -.13 20.103 200.215)"/><path d="M1370 720c0 358.98-291.02 650-650 650-358.984 0-650-291.02-650-650C70 361.016 361.016 70 720 70c358.98 0 650 291.016 650 650" style="fill:#fff;fill-opacity:1;fill-rule:nonzero;stroke:none" transform="matrix(.13 0 0 -.13 20.103 200.215)"/></svg>