<svg xmlns="http://www.w3.org/2000/svg" xml:space="preserve" width="514.1" height="448"><path d="m320-980-53.629 98.863C458.84-719.637 570-481.254 570-230c0 469.441-380.559 850-850 850s-850-380.559-850-850c0-277.32 135.293-537.211 362.461-696.277M2482.46-1026.28l-53.63 98.862c192.47 161.5 303.63 399.887 303.63 651.141 0 469.441-380.56 850-850 850s-850-380.559-850-850c0-277.325 135.29-537.215 362.46-696.282m-50 1750-53.63 98.864c192.47 161.495 303.63 399.885 303.63 651.135 0 469.44-380.56 850-849.998 850-469.442 0-850-380.56-850-850 0-277.32 135.289-537.21 362.457-696.276" style="fill:none;stroke:#000;stroke-width:250;stroke-linecap:butt;stroke-linejoin:miter;stroke-miterlimit:10;stroke-opacity:1;stroke-dasharray:none" transform="matrix(.125 0 0 -.125 156.875 312.49)"/></svg>