<svg xmlns="http://www.w3.org/2000/svg" xml:space="preserve" width="233" height="653"><path d="M-210 720h1860M720 2030v1190" style="fill:none;stroke:#000;stroke-width:250;stroke-linecap:butt;stroke-linejoin:miter;stroke-miterlimit:10;stroke-opacity:1;stroke-dasharray:none" transform="matrix(.13 0 0 -.13 26.275 727.375)"/><path d="M-210 720h1860M720 2030v1190L0 4470h720L0 5720h1440L720 4470h720L720 3220M120 5570h1200m-100-150H220m100-200h800m-100-200H420m150-200h300m-750-500h1200m-100-150H220m100-200h800m-100-200H420m150-200h300m430-2850v750M1300 1470c0 309.28-250.72 560-560 560-309.277 0-560-250.72-560-560V720" style="fill:none;stroke:#000;stroke-width:200;stroke-linecap:butt;stroke-linejoin:miter;stroke-miterlimit:10;stroke-opacity:1;stroke-dasharray:none" transform="matrix(.13 0 0 -.13 26.275 727.375)"/></svg>