<svg xmlns="http://www.w3.org/2000/svg" xml:space="preserve" width="233" height="653"><path d="M-210 720h1860M720 2030v2440" style="fill:none;stroke:#000;stroke-width:250;stroke-linecap:butt;stroke-linejoin:miter;stroke-miterlimit:10;stroke-opacity:1;stroke-dasharray:none" transform="matrix(.13 0 0 -.13 25.375 727.375)"/><path d="M-210 720h1860M720 2030v2440L0 5720h1440L720 4470l720-1250H0l720 1250M120 3370h1200m-100 150H220m100 200h800m-100 200H420m150 200h300m0 700H570m-150 200h600m100 200H320m-100 200h1000m100 150H120M1300 720v750M1300 1470c0 309.28-250.72 560-560 560-309.277 0-560-250.72-560-560V720" style="fill:none;stroke:#000;stroke-width:200;stroke-linecap:butt;stroke-linejoin:miter;stroke-miterlimit:10;stroke-opacity:1;stroke-dasharray:none" transform="matrix(.13 0 0 -.13 25.375 727.375)"/></svg>