<svg xmlns="http://www.w3.org/2000/svg" xml:space="preserve" width="233" height="665"><path d="m-600 107 6.495 11.25 6.495 11.25h-25.98l6.495-11.25z" style="fill:#000;fill-opacity:1;stroke:#000;stroke-width:4;stroke-miterlimit:4;stroke-opacity:1;stroke-dasharray:none" transform="matrix(6.79582 0 0 6.79582 4193.682 -700.616)"/><path d="M-210 720h1860M720 2030v3690" style="fill:none;stroke:#000;stroke-width:250;stroke-linecap:butt;stroke-linejoin:miter;stroke-miterlimit:10;stroke-opacity:1;stroke-dasharray:none" transform="matrix(.13 0 0 -.13 26.275 739.375)"/><path d="M-210 720h1860M720 2030l-9.6 3382.8-499.2-923.6L720 4470 0 3220h1440L720 4470h720L838.794 5472.23M120 3370h1200m-100 150H220m100 200h800m-100 200H420m150 200h300m-750 500h1200m-100 150H220m100 200h800m-100 200H420m150 200h300m430-4650v750M1300 1470c0 309.28-250.72 560-560 560-309.277 0-560-250.72-560-560V720" style="fill:none;stroke:#000;stroke-width:200;stroke-linecap:butt;stroke-linejoin:miter;stroke-miterlimit:10;stroke-opacity:1;stroke-dasharray:none" transform="matrix(.13 0 0 -.13 26.275 739.375)"/></svg>