<svg xmlns="http://www.w3.org/2000/svg" xml:space="preserve" width="233" height="653"><path d="M-210 720h1860M720 2030v3690" style="fill:none;stroke:#000;stroke-width:250;stroke-linecap:butt;stroke-linejoin:miter;stroke-miterlimit:10;stroke-opacity:1;stroke-dasharray:none" transform="matrix(.13 0 0 -.13 26.275 727.375)"/><path d="M-210 720h1860M720 2030v3690M1320 5120c0 331.37-268.63 600-600 600-331.367 0-600-268.63-600-600s268.633-600 600-600c331.37 0 600 268.63 600 600h-150c0 248.53-201.473 450-450 450s-450-201.47-450-450 201.473-450 450-450 450 201.47 450 450h-150c0 165.68-134.316 300-300 300s-300-134.32-300-300 134.316-300 300-300 300 134.32 300 300H870c0 82.84-67.16 150-150 150s-150-67.16-150-150 67.16-150 150-150 150 67.16 150 150m430-4400v750M1300 1470c0 309.28-250.72 560-560 560-309.277 0-560-250.72-560-560V720" style="fill:none;stroke:#000;stroke-width:200;stroke-linecap:butt;stroke-linejoin:miter;stroke-miterlimit:10;stroke-opacity:1;stroke-dasharray:none" transform="matrix(.13 0 0 -.13 26.275 727.375)"/></svg>