<svg xmlns="http://www.w3.org/2000/svg" xmlns:xlink="http://www.w3.org/1999/xlink" xml:space="preserve" width="295" height="370"><g transform="translate(6.751)"><path d="m-280 720 713.211 1790.43C299.582 2603.99 220 2756.87 220 2920c0 276.14 223.859 500 500 500 276.141 0 500-223.86 500-500 0-163.13-79.58-316.01-213.21-409.57l700-1800.004H-293.211" style="fill:none;stroke:#000;stroke-width:250;stroke-linecap:butt;stroke-linejoin:miter;stroke-miterlimit:10;stroke-opacity:1;stroke-dasharray:none" transform="matrix(.13 0 0 -.13 52.276 443.178)"/><path d="m4.44 343.837-10.703 25.925M29.413 369.762H-6.5" style="fill:none;stroke:#000;stroke-width:.5;stroke-linecap:butt;stroke-linejoin:miter;stroke-miterlimit:4;stroke-opacity:1;stroke-dasharray:none"/><path id="a" d="M-5.808 369.372c.03-.07 2.066-5.002 4.525-10.96 2.46-5.956 4.482-10.823 4.496-10.815.028.017 11.395 4.549 12.006 4.786l.406.158v16.96H-5.862l.054-.129z" style="fill:#000;fill-opacity:1;stroke-width:10;stroke-miterlimit:4;stroke-dasharray:none"/><use xlink:href="#a" width="281.25" height="370" transform="translate(4.774 -9.89)"/><use xlink:href="#a" width="281.25" height="370" transform="translate(10.74 .48)"/><path d="M-.793 359.733c.232-.694-.062.17.159-.436.028-.079.042-.163.079-.238.03-.059.09-.1.119-.158.037-.075.042-.164.08-.238.029-.06.082-.104.118-.159.043-.064.08-.132.12-.198.039-.066.081-.13.118-.198.085-.156.159-.317.238-.476.04-.08.076-.16.119-.238.037-.067.092-.126.119-.198.027-.075.006-.165.04-.238.034-.077.111-.128.158-.198.033-.05.053-.106.08-.159l.118-.237c.027-.053.049-.108.08-.159.09-.151-.017.12.079-.119.015-.039.018-.083.04-.119.019-.032.062-.046.079-.08.011-.023-.007-.053 0-.078.007-.03.026-.053.04-.08.026-.053.05-.107.079-.158.037-.068.084-.13.118-.199.02-.037.025-.08.04-.118.025-.067.048-.135.08-.199.14-.282.047.094.198-.396.023-.077.016-.16.04-.238.016-.057.055-.104.078-.158.017-.039.021-.082.04-.12.087-.173.09-.068.159-.277.008-.025-.005-.053 0-.08.01-.055.11-.302.119-.316.032-.058.086-.101.119-.159.034-.062.052-.132.079-.198.026-.066.057-.13.08-.198.016-.052.022-.107.039-.159.246-.738-.06.193.158-.317.022-.05.023-.107.04-.159.01-.028.029-.051.04-.079.13-.327-.093.16.119-.317.024-.054.056-.104.079-.159.079-.067.014-.161.04-.237-.005-.107.127-.12.158-.199.015-.036-.01-.08 0-.119-.093-.148.095-.125.119-.198.017-.05-.024-.111 0-.158.017-.034.053-.053.08-.08.012-.013.033-.021.039-.04.012-.035-.012-.082 0-.118.096-.287-.012.062.08-.119.005-.012-.005-.027 0-.04.008-.028.03-.05.039-.079.004-.012-.006-.028 0-.04.06-.12.031.073.079-.118.006-.026-.006-.054 0-.08.007-.028.034-.05.04-.079.007-.039-.008-.08 0-.119-.03-.073.067-.073.079-.119.01-.038 0-.08 0-.119.013-.08.018-.16.04-.238.018-.068.063-.128.079-.198.011-.051-.009-.106 0-.158.005-.03.029-.052.04-.08.015-.039.026-.079.04-.119.012-.04.033-.077.039-.119.007-.052-.009-.106 0-.158.009-.053.104-.18.119-.238.013-.053-.016-.191 0-.238.006-.018.031-.023.04-.04.005-.011 0-.026 0-.039v-.04M-5.867 369.604l9.593-23.31M5.748 369.405l-11.417-.079" style="fill:none;stroke:#000;stroke-width:1px;stroke-linecap:butt;stroke-linejoin:miter;stroke-opacity:1"/></g></svg>