<svg xmlns="http://www.w3.org/2000/svg" xml:space="preserve" width="211.25" height="873"><path d="m-600 107 6.495 11.25 6.495 11.25h-25.98l6.495-11.25z" style="fill:#000;fill-opacity:1;stroke:#000;stroke-width:4;stroke-miterlimit:4;stroke-opacity:1;stroke-dasharray:none" transform="matrix(6.79582 0 0 6.79582 4185.855 -700.07)"/><path d="M1440 720c0 397.64-322.36 720-720 720-397.645 0-720-322.36-720-720C0 322.355 322.355 0 720 0c397.64 0 720 322.355 720 720" style="fill:none;stroke:#000;stroke-width:250;stroke-linecap:butt;stroke-linejoin:miter;stroke-miterlimit:10;stroke-opacity:1;stroke-dasharray:none" transform="matrix(.13 0 0 -.13 15.625 857.375)"/><path d="M870 720c0 82.84-67.16 150-150 150s-150-67.16-150-150 67.16-150 150-150 150 67.16 150 150m-200 720v5000m150 0V1440" style="fill:none;stroke:#000;stroke-width:250;stroke-linecap:butt;stroke-linejoin:miter;stroke-miterlimit:10;stroke-opacity:1;stroke-dasharray:none" transform="matrix(.13 0 0 -.13 15.625 857.375)"/><path d="M870 720c0 82.84-67.16 150-150 150s-150-67.16-150-150 67.16-150 150-150 150 67.16 150 150m-200 720v5000m150 0V1440m-80 0-96.483 5001.864L74.534 5410H740L20 4160h1440L740 5410h720L774.112 6600.675M140 4310h1200m-100 150H240m100 200h800m-100 200H440m150 200h300m-750 500h1200m-100 150H240m100 200h800m-100 200H440m150 200h300" style="fill:none;stroke:#000;stroke-width:200;stroke-linecap:butt;stroke-linejoin:miter;stroke-miterlimit:10;stroke-opacity:1;stroke-dasharray:none" transform="matrix(.13 0 0 -.13 15.625 857.375)"/></svg>