<svg xmlns="http://www.w3.org/2000/svg" xml:space="preserve" width="218.13" height="861.88"><path d="M1440 720c0 397.64-322.36 720-720 720-397.645 0-720-322.36-720-720C0 322.355 322.355 0 720 0c397.64 0 720 322.355 720 720" style="fill:none;stroke:#000;stroke-width:250;stroke-linecap:butt;stroke-linejoin:miter;stroke-miterlimit:10;stroke-opacity:1;stroke-dasharray:none" transform="matrix(.13 0 0 -.13 15.625 846.255)"/><path d="M870 720c0 82.84-67.16 150-150 150s-150-67.16-150-150 67.16-150 150-150 150 67.16 150 150m-200 720v3730m150 0V1440" style="fill:none;stroke:#000;stroke-width:250;stroke-linecap:butt;stroke-linejoin:miter;stroke-miterlimit:10;stroke-opacity:1;stroke-dasharray:none" transform="matrix(.13 0 0 -.13 15.625 846.255)"/><path d="M870 720c0 82.84-67.16 150-150 150s-150-67.16-150-150 67.16-150 150-150 150 67.16 150 150m-200 720v3730m150 0V1440m-80 0v3730m-720 0v1500h1500V5170H20m100 100v1300h1300V5270H120m130 130v1050h1050V5400H250" style="fill:none;stroke:#000;stroke-width:200;stroke-linecap:butt;stroke-linejoin:miter;stroke-miterlimit:10;stroke-opacity:1;stroke-dasharray:none" transform="matrix(.13 0 0 -.13 15.625 846.255)"/></svg>