<svg xmlns="http://www.w3.org/2000/svg" xml:space="preserve" width="250" height="250"><path d="M720 720h1000c0 552.28-447.72 1000-1000 1000-552.281 0-1000-447.72-1000-1000 0-552.281 447.719-1000 1000-1000 552.28 0 1000 447.719 1000 1000" style="fill:#000;fill-opacity:1;fill-rule:nonzero;stroke:none" transform="matrix(.13 0 0 -.13 35 215)"/><path d="M1320 720c0 331.37-268.63 600-600 600-331.367 0-600-268.63-600-600 0-331.367 268.633-600 600-600 331.37 0 600 268.633 600 600" style="fill:#fff;fill-opacity:1;fill-rule:nonzero;stroke:none" transform="matrix(.13 0 0 -.13 35 215)"/></svg>