<svg xmlns="http://www.w3.org/2000/svg" xml:space="preserve" width="610" height="681"><path d="m560 720-2340-470L-750-910 560 720m410 0L2130-780l970 1000L970 720M620 820v1850l450-1000-450-850m0 2600L80 2850l360 1380 180-810" style="fill:#000;fill-opacity:1;fill-rule:nonzero;stroke:none" transform="matrix(.13 0 0 -.13 222.5 567.25)"/><path d="M1667.6 1932.87C1110.77 1794.04 720 1293.88 720 720" style="fill:none;stroke:#000;stroke-width:100;stroke-linecap:butt;stroke-linejoin:miter;stroke-miterlimit:10;stroke-opacity:1;stroke-dasharray:none" transform="matrix(.13 0 0 -.13 222.5 567.25)"/><path d="M1647.81 1935.29c-34.74 995.02-481.15 1930.93-1232.56 2584.12l400-3050" style="fill:#000;fill-opacity:1;fill-rule:nonzero;stroke:none" transform="matrix(.13 0 0 -.13 222.5 567.25)"/><path d="M438.699 4487.05a2692.458 2692.458 0 0 0 6.551-187.64c0-568.07-179.84-1121.57-513.742-1581.14" style="fill:none;stroke:#000;stroke-width:100;stroke-linecap:butt;stroke-linejoin:miter;stroke-miterlimit:10;stroke-opacity:1;stroke-dasharray:none" transform="matrix(.13 0 0 -.13 222.5 567.25)"/><path d="M-81.16 2755.55a2220.169 2220.169 0 0 1-27.332-347.28c0-656.22 290.324-1278.82 793.012-1700.625V3557.64" style="fill:#000;fill-opacity:1;fill-rule:nonzero;stroke:none" transform="matrix(.13 0 0 -.13 222.5 567.25)"/></svg>