<svg xmlns="http://www.w3.org/2000/svg" xml:space="preserve" width="581.25" height="1210"><path d="M770 1480v4700H670V1480m50 6790v1100m0-1100 630-100 550 950m-550-950 800-500 770 770M720 8270 90 8170l-550 950m550-950-800-500-770 770" style="fill:none;stroke:#000;stroke-width:250;stroke-linecap:butt;stroke-linejoin:miter;stroke-miterlimit:10;stroke-opacity:1;stroke-dasharray:none" transform="matrix(.13 0 0 -.13 200.625 1186.875)"/><path d="M1500 720c0 430.78-349.22 780-780 780-430.781 0-780-349.22-780-780 0-430.781 349.219-780 780-780 430.78 0 780 349.219 780 780" style="fill:none;stroke:#000;stroke-width:250;stroke-linecap:butt;stroke-linejoin:miter;stroke-miterlimit:10;stroke-opacity:1;stroke-dasharray:none" transform="matrix(.13 0 0 -.13 200.625 1186.875)"/><path d="M900 720c0 99.41-80.59 180-180 180s-180-80.59-180-180 80.59-180 180-180 180 80.59 180 180M2150 6180c0 773.2-626.8 1400-1400 1400-773.195 0-1400-626.8-1400-1400S-23.195 4780 750 4780c773.2 0 1400 626.8 1400 1400" style="fill:none;stroke:#000;stroke-width:250;stroke-linecap:butt;stroke-linejoin:miter;stroke-miterlimit:10;stroke-opacity:1;stroke-dasharray:none" transform="matrix(.13 0 0 -.13 200.625 1186.875)"/></svg>