<svg xmlns="http://www.w3.org/2000/svg" xml:space="preserve" width="481.25" height="720"><path d="M121.875 704.375h232.5m-116.25-163.75V79.375" style="fill:none;stroke:#000;stroke-width:31.25;stroke-linecap:butt;stroke-linejoin:miter;stroke-miterlimit:10;stroke-opacity:1;stroke-dasharray:none"/><path d="M121.875 704.375h232.5m-116.25-163.75V79.375l-90 156.25h90l-90 156.25h180l-90-156.25h90l-90-156.25m-75 293.75h150m-12.5-18.75h-125m12.5-25h100m-12.5-25h-75m18.75-25h37.5m-93.75-62.5h150m-12.5-18.75h-125m12.5-25h100m-12.5-25h-75m18.75-25h37.5m53.75 581.25v-93.75M310.625 610.625c0-38.66-31.34-70-70-70s-70 31.34-70 70v93.75" style="fill:none;stroke:#000;stroke-width:25;stroke-linecap:butt;stroke-linejoin:miter;stroke-miterlimit:10;stroke-opacity:1;stroke-dasharray:none"/><path d="M465.625 241.875c0-124.264-100.736-225-225-225s-225 100.736-225 225 100.736 225 225 225 225-100.736 225-225" style="fill:none;stroke:#000;stroke-width:31.25;stroke-linecap:butt;stroke-linejoin:miter;stroke-miterlimit:10;stroke-opacity:1;stroke-dasharray:none"/></svg>