<?xml version="1.0" encoding="UTF-8" standalone="no"?>
<!-- Created with Inkscape (http://www.inkscape.org/) -->

<svg
   xmlns:dc="http://purl.org/dc/elements/1.1/"
   xmlns:cc="http://creativecommons.org/ns#"
   xmlns:rdf="http://www.w3.org/1999/02/22-rdf-syntax-ns#"
   xmlns:svg="http://www.w3.org/2000/svg"
   xmlns="http://www.w3.org/2000/svg"
   xmlns:sodipodi="http://sodipodi.sourceforge.net/DTD/sodipodi-0.dtd"
   xmlns:inkscape="http://www.inkscape.org/namespaces/inkscape"
   version="1.1"
   width="481.25"
   height="720"
   id="svg2"
   xml:space="preserve"
   inkscape:version="0.48.4 r9939"
   sodipodi:docname="SVaPpoh.svg"><sodipodi:namedview
     pagecolor="#ffffff"
     bordercolor="#666666"
     borderopacity="1"
     objecttolerance="10"
     gridtolerance="10"
     guidetolerance="10"
     inkscape:pageopacity="0"
     inkscape:pageshadow="2"
     inkscape:window-width="1835"
     inkscape:window-height="1061"
     id="namedview11"
     showgrid="false"
     inkscape:zoom="0.95353536"
     inkscape:cx="108.17311"
     inkscape:cy="378.47882"
     inkscape:window-x="-4"
     inkscape:window-y="-4"
     inkscape:window-maximized="1"
     inkscape:current-layer="svg2" /><metadata
     id="metadata8"><rdf:RDF><cc:Work
         rdf:about=""><dc:format>image/svg+xml</dc:format><dc:type
           rdf:resource="http://purl.org/dc/dcmitype/StillImage" /></cc:Work></rdf:RDF></metadata><defs
     id="defs6" /><path
     d="m 121.875,704.375 232.5,0 m -116.25,-163.75 0,-461.25"
     inkscape:connector-curvature="0"
     id="path14"
     style="fill:none;stroke:#000000;stroke-width:31.25;stroke-linecap:butt;stroke-linejoin:miter;stroke-miterlimit:10;stroke-opacity:1;stroke-dasharray:none" /><path
     d="m 121.875,704.375 232.5,0 m -116.25,-163.75 0,-461.25 -90,156.25 90,0 -90,156.25 180,0 -90,-156.25 90,0 -90,-156.25 m -75,293.75 150,0 m -12.5,-18.75 -125,0 m 12.5,-25 100,0 m -12.5,-25 -75,0 m 18.75,-25 37.5,0 m -93.75,-62.5 150,0 m -12.5,-18.75 -125,0 m 12.5,-25 100,0 m -12.5,-25 -75,0 m 18.75,-25 37.5,0 m 53.75,581.25 0,-93.75"
     inkscape:connector-curvature="0"
     id="path16"
     style="fill:none;stroke:#000000;stroke-width:25;stroke-linecap:butt;stroke-linejoin:miter;stroke-miterlimit:10;stroke-opacity:1;stroke-dasharray:none" /><path
     d="m 310.625,610.625 c 0,-38.66 -31.34,-70 -70,-70 -38.65963,0 -70,31.34 -70,70 l 0,93.75"
     inkscape:connector-curvature="0"
     id="path18"
     style="fill:none;stroke:#000000;stroke-width:25;stroke-linecap:butt;stroke-linejoin:miter;stroke-miterlimit:10;stroke-opacity:1;stroke-dasharray:none" /><path
     d="m 465.625,241.875 c 0,-124.26375 -100.73625,-225 -225,-225 -124.26363,0 -225,100.73625 -225,225 0,124.26375 100.73637,225 225,225 124.26375,0 225,-100.73625 225,-225"
     inkscape:connector-curvature="0"
     id="path20"
     style="fill:none;stroke:#000000;stroke-width:31.25;stroke-linecap:butt;stroke-linejoin:miter;stroke-miterlimit:10;stroke-opacity:1;stroke-dasharray:none" /></svg>