<svg xmlns="http://www.w3.org/2000/svg" xml:space="preserve" width="394" height="750"><path d="M-210 720h1860M720 2030v3690" style="fill:none;stroke:#000;stroke-width:250;stroke-linecap:butt;stroke-linejoin:miter;stroke-miterlimit:10;stroke-opacity:1;stroke-dasharray:none" transform="matrix(.13 0 0 -.13 104.375 824.375)"/><path d="M-210 720h1860M720 2030v3690L0 4470h1440L720 5720M120 4620h1200m-100 150H220m100 200h800m-100 200H420m150 200h300m430-4650v750M1300 1470c0 309.28-250.72 560-560 560-309.277 0-560-250.72-560-560V720" style="fill:none;stroke:#000;stroke-width:200;stroke-linecap:butt;stroke-linejoin:miter;stroke-miterlimit:10;stroke-opacity:1;stroke-dasharray:none" transform="matrix(.13 0 0 -.13 104.375 824.375)"/><path d="M2190 5020c0 800.81-649.19 1450-1450 1450-800.813 0-1450-649.19-1450-1450S-60.812 3570 740 3570c800.81 0 1450 649.19 1450 1450" style="fill:none;stroke:#000;stroke-width:250;stroke-linecap:butt;stroke-linejoin:miter;stroke-miterlimit:10;stroke-opacity:1;stroke-dasharray:none" transform="matrix(.13 0 0 -.13 104.375 824.375)"/><path d="M7.715 362.484h66.6v78.3h-66.6z" style="fill:#fff;fill-opacity:1;stroke:none" transform="rotate(-29.749 -451.804 -120)"/></svg>