<svg xmlns="http://www.w3.org/2000/svg" xml:space="preserve" width="394" height="750"><path d="M-210 720h1860M720 2030v2190" style="fill:none;stroke:#000;stroke-width:250;stroke-linecap:butt;stroke-linejoin:miter;stroke-miterlimit:10;stroke-opacity:1;stroke-dasharray:none" transform="matrix(.13 0 0 -.13 106.875 824.375)"/><path d="M-210 720h1860M720 2030v2190m-750 0v1500h1500V4220H-30m100 100v1300h1300V4320H70m130 130v1050h1050V4450H200M1280 720v750M1280 1470c0 309.28-250.72 560-560 560-309.277 0-560-250.72-560-560V720" style="fill:none;stroke:#000;stroke-width:200;stroke-linecap:butt;stroke-linejoin:miter;stroke-miterlimit:10;stroke-opacity:1;stroke-dasharray:none" transform="matrix(.13 0 0 -.13 106.875 824.375)"/><path d="M2170 5020c0 800.81-649.19 1450-1450 1450-800.813 0-1450-649.19-1450-1450S-80.812 3570 720 3570c800.81 0 1450 649.19 1450 1450" style="fill:none;stroke:#000;stroke-width:250;stroke-linecap:butt;stroke-linejoin:miter;stroke-miterlimit:10;stroke-opacity:1;stroke-dasharray:none" transform="matrix(.13 0 0 -.13 106.875 824.375)"/></svg>