<svg xmlns="http://www.w3.org/2000/svg" xml:space="preserve" width="481.25" height="716.25"><path d="M-210 720h1860M720 2030v920" style="fill:none;stroke:#000;stroke-width:250;stroke-linecap:butt;stroke-linejoin:miter;stroke-miterlimit:10;stroke-opacity:1;stroke-dasharray:none" transform="matrix(.13 0 0 -.13 148.125 790.625)"/><path d="M-210 720h1860M720 2030v920M1320 3550c0 331.37-268.63 600-600 600-331.367 0-600-268.63-600-600s268.633-600 600-600c331.37 0 600 268.63 600 600h-150c0 248.53-201.473 450-450 450s-450-201.47-450-450 201.473-450 450-450 450 201.47 450 450h-150c0 165.68-134.316 300-300 300s-300-134.32-300-300 134.316-300 300-300 300 134.32 300 300H870c0 82.84-67.16 150-150 150s-150-67.16-150-150 67.16-150 150-150 150 67.16 150 150m-150 0v2250M1320 5200c0 331.37-268.63 600-600 600-331.367 0-600-268.63-600-600s268.633-600 600-600c331.37 0 600 268.63 600 600h-150c0 248.53-201.473 450-450 450s-450-201.47-450-450 201.473-450 450-450 450 201.47 450 450h-150c0 165.68-134.316 300-300 300s-300-134.32-300-300 134.316-300 300-300 300 134.32 300 300H870c0 82.84-67.16 150-150 150s-150-67.16-150-150 67.16-150 150-150 150 67.16 150 150m430-4400v750M1300 1550c0 309.28-250.72 560-560 560-309.277 0-560-250.72-560-560V800" style="fill:none;stroke:#000;stroke-width:200;stroke-linecap:butt;stroke-linejoin:miter;stroke-miterlimit:10;stroke-opacity:1;stroke-dasharray:none" transform="matrix(.13 0 0 -.13 148.125 790.625)"/><path d="M2540 4400c0 994.11-805.89 1800-1800 1800-994.109 0-1800-805.89-1800-1800s805.891-1800 1800-1800c994.11 0 1800 805.89 1800 1800" style="fill:none;stroke:#000;stroke-width:250;stroke-linecap:butt;stroke-linejoin:miter;stroke-miterlimit:10;stroke-opacity:1;stroke-dasharray:none" transform="matrix(.13 0 0 -.13 148.125 790.625)"/></svg>