<svg xmlns="http://www.w3.org/2000/svg" xml:space="preserve" width="481.25" height="706.25"><path d="M-210 720h1860M720 2030v790" style="fill:none;stroke:#000;stroke-width:250;stroke-linecap:butt;stroke-linejoin:miter;stroke-miterlimit:10;stroke-opacity:1;stroke-dasharray:none" transform="matrix(.13 0 0 -.13 148.125 780.625)"/><path d="M-210 720h1860M720 2030v790L0 4070h1440L720 2820v2900L0 4470h1440L720 5720M120 4620h1200m-100 150H220m100 200h800m-100 200H420m150 200h300M120 3920h1200m-100-150H220m100-200h800m-100-200H420m150-200h300m430-2350v750" style="fill:none;stroke:#000;stroke-width:200;stroke-linecap:butt;stroke-linejoin:miter;stroke-miterlimit:10;stroke-opacity:1;stroke-dasharray:none" transform="matrix(.13 0 0 -.13 148.125 780.625)"/><path d="M1300 1570c0 309.28-250.72 560-560 560-309.277 0-560-250.72-560-560V820" style="fill:none;stroke:#000;stroke-width:200;stroke-linecap:butt;stroke-linejoin:miter;stroke-miterlimit:10;stroke-opacity:1;stroke-dasharray:none" transform="matrix(.13 0 0 -.13 148.125 780.625)"/><path d="M2540 4320c0 994.11-805.89 1800-1800 1800-994.109 0-1800-805.89-1800-1800s805.891-1800 1800-1800c994.11 0 1800 805.89 1800 1800" style="fill:none;stroke:#000;stroke-width:250;stroke-linecap:butt;stroke-linejoin:miter;stroke-miterlimit:10;stroke-opacity:1;stroke-dasharray:none" transform="matrix(.13 0 0 -.13 148.125 780.625)"/><path d="M42.796 397.622h15.3v50.7h-15.3z" style="fill:#fff;fill-opacity:1;stroke:none" transform="rotate(-30.097 -527.7 -141.875)"/><path d="M239.1 315.9h8.1v5.1h-8.1z" style="fill:#fff;fill-opacity:1;stroke:none" transform="translate(0 -283.75)"/><path d="M242.7 315.3h8.1v5.1h-8.1z" style="fill:#fff;fill-opacity:1;stroke:none" transform="translate(0 -283.75)"/></svg>