<svg xmlns="http://www.w3.org/2000/svg" xml:space="preserve" width="481.25" height="990"><path d="M-360 720h2150m-380 0L710 4320 10 720m150 50 600 3200m50-400L310 720m150 0 400 2400m50-400L610 720m150 0 200 1700m150-400L910 820m150 0 100 700m100-350-50-350M710 4370v330" style="fill:none;stroke:#000;stroke-width:250;stroke-linecap:butt;stroke-linejoin:miter;stroke-miterlimit:10;stroke-opacity:1;stroke-dasharray:none" transform="matrix(.13 0 0 -.13 150.625 1064.375)"/><path d="M-360 720h2150m-380 0L710 4320 10 720m150 50 600 3200m50-400L310 720m150 0 400 2400m50-400L610 720m150 0 200 1700m150-400L910 820m150 0 100 700m100-350-50-350M710 4370v330M1310 5300c0 331.37-268.63 600-600 600-331.367 0-600-268.63-600-600s268.633-600 600-600c331.37 0 600 268.63 600 600" style="fill:none;stroke:#000;stroke-width:200;stroke-linecap:butt;stroke-linejoin:miter;stroke-miterlimit:10;stroke-opacity:1;stroke-dasharray:none" transform="matrix(.13 0 0 -.13 150.625 1064.375)"/><path d="M1160 5300c0 248.53-201.473 450-450 450s-450-201.47-450-450 201.473-450 450-450 450 201.47 450 450m-450 0h300c0 165.68-134.316 300-300 300s-300-134.32-300-300 134.316-300 300-300 300 134.32 300 300m-300 0h150c0 82.84-67.16 150-150 150s-150-67.16-150-150 67.16-150 150-150 150 67.16 150 150m-140 0v1110M1320 7010c0 331.37-268.63 600-600 600-331.367 0-600-268.63-600-600s268.633-600 600-600c331.37 0 600 268.63 600 600" style="fill:none;stroke:#000;stroke-width:200;stroke-linecap:butt;stroke-linejoin:miter;stroke-miterlimit:10;stroke-opacity:1;stroke-dasharray:none" transform="matrix(.13 0 0 -.13 150.625 1064.375)"/><path d="M1170 7010c0 248.53-201.473 450-450 450s-450-201.47-450-450 201.473-450 450-450 450 201.47 450 450m-450 0h300c0 165.68-134.316 300-300 300s-300-134.32-300-300 134.316-300 300-300 300 134.32 300 300m-300 0h150c0 82.84-67.16 150-150 150s-150-67.16-150-150 67.16-150 150-150 150 67.16 150 150" style="fill:none;stroke:#000;stroke-width:200;stroke-linecap:butt;stroke-linejoin:miter;stroke-miterlimit:10;stroke-opacity:1;stroke-dasharray:none" transform="matrix(.13 0 0 -.13 150.625 1064.375)"/><path d="M2520 6160c0 994.11-805.89 1800-1800 1800-994.109 0-1800-805.89-1800-1800s805.891-1800 1800-1800c994.11 0 1800 805.89 1800 1800" style="fill:none;stroke:#000;stroke-width:250;stroke-linecap:butt;stroke-linejoin:miter;stroke-miterlimit:10;stroke-opacity:1;stroke-dasharray:none" transform="matrix(.13 0 0 -.13 150.625 1064.375)"/></svg>