<svg xmlns="http://www.w3.org/2000/svg" xml:space="preserve" width="481.25" height="943.75"><path d="m101.87 13.606 44.15 76.465 44.15 76.429H13.605L57.72 90.07z" style="fill:#000;fill-opacity:1;fill-rule:nonzero;stroke:#000;stroke-width:27.17716599px;stroke-linecap:butt;stroke-linejoin:miter;stroke-miterlimit:4;stroke-opacity:1;stroke-dasharray:none" transform="translate(138.862 72.947)"/><path d="M-360 720h2150m-380 0L710 4320 10 720m150 50 600 3200m50-400L310 720m150 0 400 2400m50-400L610 720m150 0 200 1700m150-400L910 820m150 0 100 700m100-350-50-350M710 4370v3100" style="fill:none;stroke:#000;stroke-width:250;stroke-linecap:butt;stroke-linejoin:miter;stroke-miterlimit:10;stroke-opacity:1;stroke-dasharray:none" transform="matrix(.13 0 0 -.13 151.875 1018.125)"/><path d="M-360 720h2150m-380 0L710 4320 10 720m150 50 600 3200m50-400L310 720m150 0 400 2400m50-400L610 720m150 0 200 1700m150-400L910 820m150 0 100 700m100-350-50-350M710 4370l-40.047 2698.047-557.765-820.894L710 6220-10 4970h1440L710 6220h720L806 7297.2M110 5120h1200m-100 150H210m100 200h800m-100 200H410m150 200h300m-750 500h1200m-100 150H210m100 200h800m-100 200H410m150 200h300" style="fill:none;stroke:#000;stroke-width:200;stroke-linecap:butt;stroke-linejoin:miter;stroke-miterlimit:10;stroke-opacity:1;stroke-dasharray:none" transform="matrix(.13 0 0 -.13 151.875 1018.125)"/><path d="M2510 6220c0 994.11-805.89 1800-1800 1800-994.109 0-1800-805.89-1800-1800s805.891-1800 1800-1800c994.11 0 1800 805.89 1800 1800" style="fill:none;stroke:#000;stroke-width:250;stroke-linecap:butt;stroke-linejoin:miter;stroke-miterlimit:10;stroke-opacity:1;stroke-dasharray:none" transform="matrix(.13 0 0 -.13 151.875 1018.125)"/></svg>