<svg xmlns="http://www.w3.org/2000/svg" xml:space="preserve" width="394" height="975"><path d="m101.87 13.606 44.15 76.465 44.15 76.429H13.605L57.72 90.07z" style="fill:#000;fill-opacity:1;fill-rule:nonzero;stroke:#000;stroke-width:27.17716599px;stroke-linecap:butt;stroke-linejoin:miter;stroke-miterlimit:4;stroke-opacity:1;stroke-dasharray:none" transform="translate(95.011 104.168)"/><path d="M-360 720h2150m-380 0L710 4320 10 720m150 50 600 3200m50-400L310 720m150 0 400 2400m50-400L610 720m150 0 200 1700m150-400L910 820m150 0 100 700m100-350-50-350M710 4370v3100" style="fill:none;stroke:#000;stroke-width:250;stroke-linecap:butt;stroke-linejoin:miter;stroke-miterlimit:10;stroke-opacity:1;stroke-dasharray:none" transform="matrix(.13 0 0 -.13 108.125 1049.375)"/><path d="M-360 720h2150m-380 0L710 4320 10 720m150 50 600 3200m50-400L310 720m150 0 400 2400m50-400L610 720m150 0 200 1700m150-400L910 820m150 0 100 700m100-350-50-350M710 4370v2613.39l-443.136-696.271L1430 6220l-606.737 998.305M110 6370h1200m-100 150H210m100 200h800m-100 200H410m150 200h300" style="fill:none;stroke:#000;stroke-width:200;stroke-linecap:butt;stroke-linejoin:miter;stroke-miterlimit:10;stroke-opacity:1;stroke-dasharray:none" transform="matrix(.13 0 0 -.13 108.125 1049.375)"/><path d="M2160 6820c0 800.81-649.19 1450-1450 1450-800.813 0-1450-649.19-1450-1450S-90.812 5370 710 5370c800.81 0 1450 649.19 1450 1450" style="fill:none;stroke:#000;stroke-width:250;stroke-linecap:butt;stroke-linejoin:miter;stroke-miterlimit:10;stroke-opacity:1;stroke-dasharray:none" transform="matrix(.13 0 0 -.13 108.125 1049.375)"/></svg>