<svg xmlns="http://www.w3.org/2000/svg" xml:space="preserve" width="481.25" height="918.25"><path d="m101.87 13.606 44.15 76.465 44.15 76.429H13.605L57.72 90.07z" style="fill:#000;fill-opacity:1;fill-rule:nonzero;stroke:#000;stroke-width:27.17716599px;stroke-linecap:butt;stroke-linejoin:miter;stroke-miterlimit:4;stroke-opacity:1;stroke-dasharray:none" transform="translate(145.794 47.33)"/><path d="M-360 720h2150m-380 0L710 4320 10 720m150 50 600 3200m50-400L310 720m150 0 400 2400m50-400L610 720m150 0 200 1700m150-400L910 820m150 0 100 700m100-350-50-350M710 4370v200" style="fill:none;stroke:#000;stroke-width:250;stroke-linecap:butt;stroke-linejoin:miter;stroke-miterlimit:10;stroke-opacity:1;stroke-dasharray:none" transform="matrix(.13 0 0 -.13 158.125 992.625)"/><path d="M-360 720h2150m-380 0L710 4320 10 720m150 50 600 3200m50-400L310 720m150 0 400 2400m50-400L610 720m150 0 200 1700m150-400L910 820m150 0 100 700m100-350-50-350M710 4370v200L-10 5820h1440L710 4570v2603.375l-601.35-941.51L1430 6220l-571.687 965.24M110 6370h1200m-100 150H210m100 200h800m-100 200H410m150 200h300M110 5670h1200m-100-150H210m100-200h800m-100-200H410m150-200h300" style="fill:none;stroke:#000;stroke-width:200;stroke-linecap:butt;stroke-linejoin:miter;stroke-miterlimit:10;stroke-opacity:1;stroke-dasharray:none" transform="matrix(.13 0 0 -.13 158.125 992.625)"/><path d="M2460 6020c0 994.11-805.89 1800-1800 1800-994.109 0-1800-805.89-1800-1800s805.891-1800 1800-1800c994.11 0 1800 805.89 1800 1800" style="fill:none;stroke:#000;stroke-width:250;stroke-linecap:butt;stroke-linejoin:miter;stroke-miterlimit:10;stroke-opacity:1;stroke-dasharray:none" transform="matrix(.13 0 0 -.13 158.125 992.625)"/></svg>