<svg xmlns="http://www.w3.org/2000/svg" xml:space="preserve" width="481.25" height="722"><path d="M720 720v2500" style="fill:none;stroke:#000;stroke-width:250;stroke-linecap:butt;stroke-linejoin:miter;stroke-miterlimit:10;stroke-opacity:1;stroke-dasharray:none" transform="matrix(.13 0 0 -.13 150.625 811.975)"/><path d="M720 720v2500L0 4470h720L0 5720h1440L720 4470h720L720 3220M120 5570h1200m-100-150H220m100-200h800m-100-200H420m150-200h300m-750-500h1200m-100-150H220m100-200h800m-100-200H420m150-200h300" style="fill:none;stroke:#000;stroke-width:200;stroke-linecap:butt;stroke-linejoin:miter;stroke-miterlimit:10;stroke-opacity:1;stroke-dasharray:none" transform="matrix(.13 0 0 -.13 150.625 811.975)"/><path d="M2520 4570c0 994.11-805.89 1800-1800 1800-994.109 0-1800-805.89-1800-1800s805.891-1800 1800-1800c994.11 0 1800 805.89 1800 1800" style="fill:none;stroke:#000;stroke-width:250;stroke-linecap:butt;stroke-linejoin:miter;stroke-miterlimit:10;stroke-opacity:1;stroke-dasharray:none" transform="matrix(.13 0 0 -.13 150.625 811.975)"/></svg>