<svg xmlns="http://www.w3.org/2000/svg" xml:space="preserve" width="481.25" height="710"><path d="M720 720v3750" style="fill:none;stroke:#000;stroke-width:250;stroke-linecap:butt;stroke-linejoin:miter;stroke-miterlimit:10;stroke-opacity:1;stroke-dasharray:none" transform="matrix(.13 0 0 -.13 150.625 799.975)"/><path d="M720 720v3750L0 5720h1440L720 4470l720-1250H0l720 1250M120 3370h1200m-100 150H220m100 200h800m-100 200H420m150 200h300m0 700H570m-150 200h600m100 200H320m-100 200h1000m100 150H120" style="fill:none;stroke:#000;stroke-width:200;stroke-linecap:butt;stroke-linejoin:miter;stroke-miterlimit:10;stroke-opacity:1;stroke-dasharray:none" transform="matrix(.13 0 0 -.13 150.625 799.975)"/><path d="M2520 4470c0 994.11-805.89 1800-1800 1800-994.109 0-1800-805.89-1800-1800s805.891-1800 1800-1800c994.11 0 1800 805.89 1800 1800" style="fill:none;stroke:#000;stroke-width:250;stroke-linecap:butt;stroke-linejoin:miter;stroke-miterlimit:10;stroke-opacity:1;stroke-dasharray:none" transform="matrix(.13 0 0 -.13 150.625 799.975)"/></svg>