<svg xmlns="http://www.w3.org/2000/svg" xml:space="preserve" width="393.75" height="729"><path d="M720 720v3500" style="fill:none;stroke:#000;stroke-width:250;stroke-linecap:butt;stroke-linejoin:miter;stroke-miterlimit:10;stroke-opacity:1;stroke-dasharray:none" transform="matrix(.125 0 0 -.125 106.875 818.975)"/><path d="M720 720v3500m-750 0v1500h1500V4220H-30m100 100v1300h1300V4320H70m130 130v1050h1050V4450H200" style="fill:none;stroke:#000;stroke-width:200;stroke-linecap:butt;stroke-linejoin:miter;stroke-miterlimit:10;stroke-opacity:1;stroke-dasharray:none" transform="matrix(.125 0 0 -.125 106.875 818.975)"/><path d="M2170 4970c0 800.81-649.19 1450-1450 1450-800.813 0-1450-649.19-1450-1450S-80.812 3520 720 3520c800.81 0 1450 649.19 1450 1450" style="fill:none;stroke:#000;stroke-width:250;stroke-linecap:butt;stroke-linejoin:miter;stroke-miterlimit:10;stroke-opacity:1;stroke-dasharray:none" transform="matrix(.125 0 0 -.125 106.875 818.975)"/></svg>