<svg xmlns="http://www.w3.org/2000/svg" xml:space="preserve" width="394" height="963.75"><path d="m-600 107 6.495 11.25 6.495 11.25h-25.98l6.495-11.25z" style="fill:#000;fill-opacity:1;stroke:#000;stroke-width:4;stroke-miterlimit:4;stroke-opacity:1;stroke-dasharray:none" transform="matrix(6.79582 0 0 6.79582 4274.989 -609.438)"/><path d="M1440 720c0 397.64-322.36 720-720 720-397.645 0-720-322.36-720-720C0 322.355 322.355 0 720 0c397.64 0 720 322.355 720 720" style="fill:none;stroke:#000;stroke-width:250;stroke-linecap:butt;stroke-linejoin:miter;stroke-miterlimit:10;stroke-opacity:1;stroke-dasharray:none" transform="matrix(.13 0 0 -.13 104.375 948.125)"/><path d="M870 720c0 82.84-67.16 150-150 150s-150-67.16-150-150 67.16-150 150-150 150 67.16 150 150m-200 720v5000m150 0V1440" style="fill:none;stroke:#000;stroke-width:250;stroke-linecap:butt;stroke-linejoin:miter;stroke-miterlimit:10;stroke-opacity:1;stroke-dasharray:none" transform="matrix(.13 0 0 -.13 104.375 948.125)"/><path d="M870 720c0 82.84-67.16 150-150 150s-150-67.16-150-150 67.16-150 150-150 150 67.16 150 150m-200 720v5000m150 0V1440m-80 0-62.291 4956.003-544.991-965.24L1460 5410 775.595 6568.046M140 5560h1200m-100 150H240m100 200h800m-100 200H440m150 200h300" style="fill:none;stroke:#000;stroke-width:200;stroke-linecap:butt;stroke-linejoin:miter;stroke-miterlimit:10;stroke-opacity:1;stroke-dasharray:none" transform="matrix(.13 0 0 -.13 104.375 948.125)"/><path d="M2190 6010c0 800.81-649.19 1450-1450 1450-800.813 0-1450-649.19-1450-1450S-60.812 4560 740 4560c800.81 0 1450 649.19 1450 1450" style="fill:none;stroke:#000;stroke-width:250;stroke-linecap:butt;stroke-linejoin:miter;stroke-miterlimit:10;stroke-opacity:1;stroke-dasharray:none" transform="matrix(.13 0 0 -.13 104.375 948.125)"/></svg>